<svg width="34" height="20" viewBox="0 0 34 20" fill="none" xmlns="http://www.w3.org/2000/svg">
<g id="cod.svg" clip-path="url(#clip0_19_361)">
<path id="Vector" d="M28.8887 2.67542H7.29895C7.25274 2.67542 7.21527 2.71288 7.21527 2.7591V14.9766C7.21527 15.0228 7.25274 15.0602 7.29895 15.0602H28.8887C28.9349 15.0602 28.9724 15.0228 28.9724 14.9766V2.7591C28.9724 2.71288 28.9349 2.67542 28.8887 2.67542Z" fill="#EB5F31"/>
<path id="Vector_2" d="M33.0804 2.44907L31.542 0.910612C31.5093 0.877932 31.4563 0.877932 31.4236 0.910612L29.8852 2.44907C29.8525 2.48175 29.8525 2.53473 29.8852 2.56741L31.4236 4.10587C31.4563 4.13854 31.5093 4.13854 31.542 4.10587L33.0804 2.56741C33.1131 2.53473 33.1131 2.48175 33.0804 2.44907Z" fill="#F5C354"/>
<path id="Vector_3" d="M18.8491 19.1127C18.4671 19.1127 18.1208 19.0306 17.8102 18.8663C17.5031 18.6985 17.2603 18.4682 17.0818 18.1754C16.9068 17.8791 16.8193 17.5453 16.8193 17.1739C16.8193 16.8026 16.9068 16.4706 17.0818 16.1778C17.2603 15.8815 17.5031 15.6512 17.8102 15.4869C18.1208 15.3191 18.4689 15.2352 18.8545 15.2352C19.1794 15.2352 19.4721 15.2924 19.7328 15.4066C19.997 15.5209 20.2184 15.6851 20.3969 15.8993L19.8399 16.4135C19.5864 16.1207 19.2722 15.9743 18.8973 15.9743C18.6652 15.9743 18.4582 16.0261 18.2761 16.1296C18.094 16.2296 17.9512 16.3706 17.8476 16.5527C17.7477 16.7348 17.6977 16.9419 17.6977 17.1739C17.6977 17.406 17.7477 17.6131 17.8476 17.7952C17.9512 17.9773 18.094 18.1201 18.2761 18.2237C18.4582 18.3236 18.6652 18.3736 18.8973 18.3736C19.2722 18.3736 19.5864 18.2254 19.8399 17.9291L20.3969 18.4432C20.2184 18.661 19.997 18.827 19.7328 18.9413C19.4686 19.0555 19.174 19.1127 18.8491 19.1127ZM22.6609 19.1127C22.2718 19.1127 21.9201 19.0287 21.6059 18.861C21.2953 18.6932 21.0507 18.4628 20.8722 18.1701C20.6972 17.8737 20.6098 17.5417 20.6098 17.1739C20.6098 16.8062 20.6972 16.4759 20.8722 16.1831C21.0507 15.8868 21.2953 15.6547 21.6059 15.4869C21.9201 15.3191 22.2718 15.2352 22.6609 15.2352C23.0501 15.2352 23.4 15.3191 23.7107 15.4869C24.0213 15.6547 24.2658 15.8868 24.4444 16.1831C24.6229 16.4759 24.7121 16.8062 24.7121 17.1739C24.7121 17.5417 24.6229 17.8737 24.4444 18.1701C24.2658 18.4628 24.0213 18.6932 23.7107 18.861C23.4 19.0287 23.0501 19.1127 22.6609 19.1127ZM22.6609 18.3736C22.8824 18.3736 23.0823 18.3236 23.2608 18.2237C23.4393 18.1201 23.5786 17.9773 23.6785 17.7952C23.7821 17.6131 23.8338 17.406 23.8338 17.1739C23.8338 16.9419 23.7821 16.7348 23.6785 16.5527C23.5786 16.3706 23.4393 16.2296 23.2608 16.1296C23.0823 16.0261 22.8824 15.9743 22.6609 15.9743C22.4396 15.9743 22.2397 16.0261 22.0611 16.1296C21.8826 16.2296 21.7416 16.3706 21.6381 16.5527C21.5381 16.7348 21.4881 16.9419 21.4881 17.1739C21.4881 17.406 21.5381 17.6131 21.6381 17.7952C21.7416 17.9773 21.8826 18.1201 22.0611 18.2237C22.2397 18.3236 22.4396 18.3736 22.6609 18.3736ZM25.3053 15.2995H27.0083C27.4154 15.2995 27.7742 15.378 28.0848 15.5351C28.399 15.6887 28.6418 15.9064 28.8132 16.1885C28.9881 16.4706 29.0756 16.799 29.0756 17.1739C29.0756 17.5489 28.9881 17.8773 28.8132 18.1594C28.6418 18.4414 28.399 18.661 28.0848 18.8181C27.7742 18.9716 27.4154 19.0484 27.0083 19.0484H25.3053V15.2995ZM26.9655 18.3361C27.3404 18.3361 27.6385 18.2326 27.8599 18.0255C28.0848 17.8148 28.1973 17.531 28.1973 17.1739C28.1973 16.8169 28.0848 16.5348 27.8599 16.3278C27.6385 16.1171 27.3404 16.0118 26.9655 16.0118H26.1729V18.3361H26.9655Z" fill="#F26949"/>
<path id="Vector_4" fill-rule="evenodd" clip-rule="evenodd" d="M9.24937 6.45717C9.23365 6.47286 9.22485 6.49415 9.22485 6.51634V9.55235V11.2517C9.22485 11.2739 9.23365 11.2952 9.24937 11.3109L11.4852 13.5467C11.5009 13.5625 11.5222 13.5713 11.5444 13.5713H17.5932L24.646 13.5713C24.6682 13.5713 24.6895 13.5625 24.7051 13.5468L26.941 11.3109C26.9567 11.2952 26.9655 11.274 26.9655 11.2517V8.21612C26.9655 8.21589 26.9657 8.21612 26.9655 8.21612C26.9653 8.21612 26.9648 8.21555 26.9648 8.21532V6.51554C26.9648 6.49335 26.9559 6.47206 26.9402 6.45637L24.7051 4.22129C24.6895 4.2056 24.6682 4.19678 24.646 4.19678L18.5971 4.19678H11.5444C11.5222 4.19678 11.5009 4.20559 11.4852 4.22129L9.24937 6.45717Z" fill="#EE825B"/>
<path id="Vector_5" d="M17.9271 12.5668C19.9606 12.5668 21.609 10.9183 21.609 8.88484C21.609 6.85135 19.9606 5.20288 17.9271 5.20288C15.8936 5.20288 14.2451 6.85135 14.2451 8.88484C14.2451 10.9183 15.8936 12.5668 17.9271 12.5668Z" fill="#EB5D2D"/>
<path id="Vector_6" d="M7.00848 13.3384C4.87151 10.7826 1.94756 13.14 0.269428 13.2178C0.223262 13.2199 0.186783 13.2573 0.186783 13.3034V19.6632C0.186783 19.7094 0.224248 19.7469 0.270464 19.7469H11.8933C11.8991 19.7469 11.9049 19.7463 11.9107 19.745C14.1797 19.2537 17.0205 16.5878 18.0057 15.2062C18.0445 15.1518 18.005 15.0776 17.9382 15.0776H11.4528C11.3758 15.0776 11.3387 14.9825 11.3954 14.9305C12.9746 13.479 16.1785 9.88406 14.0778 8.53367C12.5716 7.56535 8.55486 13.3871 8.22015 13.2198C7.96948 13.0944 7.40582 13.2527 7.10601 13.3649C7.07173 13.3778 7.03196 13.3665 7.00848 13.3384Z" fill="#F5BB89"/>
</g>
<defs>
<clipPath id="clip0_19_361">
<rect width="33.14" height="19.9983" fill="white" transform="translate(0 0.843262)"/>
</clipPath>
</defs>
</svg>
