<svg width="65" height="20" viewBox="0 0 65 20" fill="none" xmlns="http://www.w3.org/2000/svg">
<g id="vnpay.svg" clip-path="url(#clip0_19_371)">
<path id="Vector" d="M14.2709 7.49766L12.4118 9.35674L12.3189 9.44966L11.7286 10.0399L11.2917 10.4814L10.7015 11.0717L10.6085 11.16L10.353 11.4203L10.26 11.5086L9.39087 12.3776L9.29795 12.466C9.04391 12.7196 8.7562 12.937 8.44277 13.1119C8.29319 13.1957 8.13787 13.2687 7.97802 13.3304C7.61799 13.4699 7.23863 13.553 6.85327 13.5768C6.61982 13.5976 6.38496 13.5976 6.1515 13.5768C5.64172 13.5213 5.14846 13.3633 4.70144 13.1119C4.49902 13.0072 4.31146 12.8759 4.14373 12.7216L4.03683 12.6147L0.648717 9.19402L0.579003 9.12429C0.518656 9.05903 0.465665 8.98738 0.420984 8.91052C0.304726 8.71347 0.243718 8.48869 0.244375 8.25985C0.241947 8.22425 0.241947 8.18859 0.244375 8.15299C0.244375 8.0972 0.244375 8.04141 0.244375 7.99028V7.92988C0.289803 7.7609 0.368838 7.60285 0.476755 7.46513C0.505273 7.42888 0.536336 7.39471 0.569708 7.36288L0.630127 7.30246L4.27851 3.70055L6.46289 1.52082C6.69532 1.288 7.00752 1.15223 7.33635 1.14101C7.66512 1.1298 7.98588 1.24397 8.23366 1.4604L14.2709 7.49766Z" fill="#005BAA"/>
<path id="Vector_2" d="M7.70435 15.6021C7.41038 15.601 7.12021 15.536 6.85384 15.4116L6.16137 14.7237L5.9894 14.5564L5.96152 14.5239L5.64083 14.2032L4.02811 12.5719L4.135 12.6787C4.30389 12.835 4.49305 12.968 4.69736 13.0738C5.14438 13.3251 5.63765 13.4832 6.14742 13.5386C6.38088 13.5594 6.61575 13.5594 6.84924 13.5386C7.23454 13.5148 7.61396 13.4318 7.97393 13.2923C8.13378 13.2305 8.28909 13.1575 8.43868 13.0738C8.75211 12.8988 9.03988 12.6814 9.29386 12.4278L9.38678 12.3395L10.2559 11.4704L10.3489 11.3821L10.6045 11.1218L10.6974 11.0335L11.2877 10.4432L11.7245 10.0017L12.3287 9.44399L12.4217 9.35107L16.163 5.63297L17.6967 3.92729L17.7804 3.84828C18.0069 3.62266 18.3135 3.49597 18.6332 3.49597C18.9529 3.49597 19.2596 3.62266 19.4861 3.84828L20.332 4.69415H20.3598C20.17 4.68623 19.9806 4.71719 19.8032 4.78512C19.6257 4.85305 19.4641 4.95653 19.3281 5.0892L16.4698 7.87775L16.4419 7.91028L11.4782 12.8554L9.64242 14.654L9.5309 14.7702C9.28106 15.0128 8.99389 15.2136 8.68039 15.365C8.50601 15.4496 8.32182 15.5121 8.13198 15.551C8.02325 15.5738 7.91293 15.5878 7.80194 15.5928L7.70435 15.6021Z" fill="#ED1C24"/>
<path id="Vector_3" d="M24.9151 10.9782L24.8222 11.0711L20.7741 15.1796L16.5122 19.4972C16.3798 19.6309 16.2368 19.7537 16.0847 19.8644L16.0242 19.9062C15.2834 20.4356 14.3812 20.6904 13.4728 20.6268C12.5644 20.5632 11.7065 20.1851 11.0467 19.5577L10.9351 19.4926L10.2054 18.7629L8.14651 16.704L7.45871 16.0115L7.36572 15.9139C7.47631 15.9324 7.58823 15.9418 7.70035 15.9418H7.79794C7.92933 15.9362 8.05998 15.9191 8.18837 15.8906C8.40608 15.8475 8.61706 15.7757 8.81577 15.6769C9.15827 15.5069 9.47191 15.2842 9.74534 15.0169L9.8708 14.8821L11.451 13.3298L16.8841 7.98506L16.9119 7.94787L19.5797 5.36383C19.753 5.1977 19.9778 5.09565 20.2169 5.07453C20.456 5.0534 20.6952 5.11446 20.8949 5.24763L21.5177 5.87506L24.9105 9.27246C24.9408 9.30119 24.9688 9.33226 24.9942 9.36545C25.1832 9.59623 25.2797 9.889 25.2651 10.187C25.2505 10.485 25.1258 10.7669 24.9151 10.9782Z" fill="#ED1C24"/>
<path id="Vector_4" d="M11.7973 6.481C11.7493 6.52542 11.6862 6.55009 11.6207 6.55009C11.5552 6.55009 11.4922 6.52542 11.4441 6.481C11.0624 6.0968 10.6087 5.79155 10.1089 5.58269C9.60917 5.37382 9.07323 5.26543 8.53161 5.2637C7.43773 5.26021 6.3873 5.6914 5.61136 6.46241C4.83542 7.23342 4.39754 8.28108 4.39406 9.37497C4.39057 10.4688 4.82176 11.5192 5.59276 12.2952L6.84766 13.5593C6.84899 13.5686 6.84899 13.5779 6.84766 13.5872C6.62037 13.6082 6.39168 13.6082 6.16443 13.5872L5.2349 12.6577C4.37206 11.7887 3.88977 10.6125 3.89413 9.3879C3.89849 8.16336 4.38914 6.99062 5.25814 6.12778C6.12714 5.26495 7.30334 4.78266 8.52788 4.78702C9.75249 4.79138 10.9252 5.28202 11.788 6.15102C11.8301 6.19512 11.8544 6.25327 11.8561 6.31423C11.8579 6.37518 11.8369 6.43461 11.7973 6.481Z" fill="#009EDB"/>
<path id="Vector_5" d="M13.7223 8.06175L13.3737 8.40565L12.7649 7.79218C12.7419 7.76932 12.7238 7.74212 12.7114 7.71219C12.699 7.68233 12.6926 7.65026 12.6926 7.61787C12.6926 7.58554 12.699 7.55347 12.7114 7.52354C12.7238 7.49364 12.7419 7.46647 12.7649 7.44359C12.7877 7.42069 12.8149 7.40252 12.8448 7.39012C12.8747 7.37772 12.9068 7.37134 12.9392 7.37134C12.9715 7.37134 13.0036 7.37772 13.0335 7.39012C13.0634 7.40252 13.0906 7.42069 13.1134 7.44359L13.7223 8.06175Z" fill="#009EDB"/>
<path id="Vector_6" d="M8.45976 13.1026C8.31037 13.1853 8.15499 13.2568 7.995 13.3164L6.28467 11.6061C5.76607 11.0837 5.44608 10.3967 5.3799 9.66363C5.31372 8.9305 5.5055 8.19731 5.92215 7.59051C5.95971 7.53705 6.01667 7.50029 6.0809 7.48814C6.14513 7.47599 6.21157 7.48938 6.26608 7.52545C6.29269 7.54405 6.31537 7.56764 6.33282 7.59504C6.35027 7.62237 6.36215 7.6529 6.36776 7.68483C6.37337 7.71683 6.37262 7.74956 6.36554 7.78122C6.35845 7.81289 6.34519 7.84288 6.3265 7.86941C5.97527 8.38156 5.81374 9.00016 5.86973 9.6187C5.92573 10.2372 6.19574 10.8167 6.63324 11.2575L8.45976 13.1026Z" fill="#009EDB"/>
<path id="Vector_7" d="M12.6797 9.08541L12.4242 9.34098L12.3405 9.42464L10.421 7.4866C10.0697 7.13378 9.62678 6.88629 9.14216 6.77212C8.65761 6.65795 8.15073 6.68167 7.67891 6.84058C7.64738 6.85517 7.61312 6.86292 7.57845 6.86334C7.54372 6.86375 7.50926 6.85683 7.4774 6.84301C7.4456 6.82918 7.417 6.80878 7.39361 6.78314C7.37014 6.7575 7.35241 6.7272 7.34154 6.69422C7.33068 6.66125 7.32688 6.62634 7.33041 6.5918C7.33401 6.55726 7.34481 6.52386 7.36221 6.49379C7.37954 6.46373 7.40307 6.43767 7.43127 6.41734C7.4594 6.39701 7.49153 6.38286 7.52553 6.37582C8.08187 6.19343 8.67807 6.16987 9.24708 6.30781C9.81609 6.44575 10.3353 6.73971 10.7463 7.15662L12.6797 9.08541Z" fill="#009EDB"/>
<path id="Vector_8" d="M11.6554 10.1173L11.3069 10.4659L9.37813 8.52322C9.14575 8.33277 8.85078 8.23571 8.55075 8.25091C8.25071 8.26618 7.96714 8.39263 7.7553 8.60561C7.54345 8.81865 7.41853 9.10296 7.40493 9.40306C7.39133 9.70316 7.48999 9.9976 7.6817 10.2289L8.92264 11.4791C8.96884 11.5253 8.99483 11.588 8.99483 11.6534C8.99483 11.7188 8.96884 11.7814 8.92264 11.8277C8.87645 11.8739 8.81372 11.8999 8.74833 11.8999C8.683 11.8999 8.62027 11.8739 8.57408 11.8277L7.30994 10.5775C7.01497 10.252 6.85692 9.82515 6.86879 9.38606C6.88065 8.94691 7.06143 8.52935 7.3736 8.22018C7.6857 7.91108 8.10499 7.7343 8.54421 7.7267C8.98344 7.71903 9.40866 7.88115 9.73136 8.17925L11.6554 10.1173Z" fill="#009EDB"/>
<path id="Vector_9" d="M10.6241 11.146L10.3685 11.4063L10.2848 11.4853L8.34676 9.55186C8.30056 9.5056 8.27457 9.44294 8.27457 9.37754C8.27457 9.31222 8.30056 9.24949 8.34676 9.2033C8.39302 9.15703 8.45568 9.1311 8.52107 9.1311C8.5864 9.1311 8.64913 9.15703 8.69532 9.2033L10.6241 11.146Z" fill="#009EDB"/>
<path id="Vector_10" fill-rule="evenodd" clip-rule="evenodd" d="M59.1209 11.0402L56.2486 6.92243L55.9605 6.65752H58.8048L60.7243 9.76678L60.8777 9.64126L62.0349 7.91704C62.18 7.72866 62.2447 7.49062 62.2152 7.25475C62.1856 7.01886 62.064 6.80422 61.8769 6.65752H64.5493L61.4586 11.0356V14.2145L62.0024 14.8652H58.6654L59.1302 14.2239C59.1302 13.1688 59.093 12.0952 59.1302 11.0402H59.1209ZM51.3268 6.65752C51.511 6.84827 51.6256 7.09548 51.6522 7.3593C51.6704 7.51681 51.6497 7.67646 51.5917 7.82405L49.4585 14.0147C49.3174 14.3257 49.1096 14.6018 48.8497 14.8234H51.1734C51.0028 14.6835 50.8875 14.4874 50.8481 14.2703C50.8061 14.1182 50.8061 13.9576 50.8481 13.8056L51.3129 12.3369H54.0225L54.4454 13.4709C54.488 13.5844 54.5146 13.7033 54.5244 13.8242C54.552 14.0171 54.5263 14.2139 54.4501 14.3933C54.3739 14.5727 54.2502 14.7279 54.0922 14.842H57.7405C57.3808 14.5525 57.0849 14.1917 56.8714 13.7823L54.2037 6.63428L51.3268 6.65752ZM53.6506 11.3052H51.7126L52.6421 8.6281L53.6414 11.3052H53.6506ZM43.9324 6.66216H47.9991C48.5892 6.66339 49.1547 6.89833 49.5719 7.31556C49.9891 7.73279 50.2241 8.29833 50.2253 8.88834V9.16258C50.2181 9.74698 49.9817 10.3052 49.5671 10.7171C49.1526 11.1291 48.5929 11.3619 48.0084 11.3655L46.9906 11.3981C47.3717 11.1901 47.6784 10.8682 47.8676 10.4774C48.0567 10.0865 48.119 9.64633 48.0456 9.21837C47.9666 8.53051 47.6134 7.87051 47.0231 7.85658H46.6513V13.9496C46.6496 14.0475 46.6789 14.1435 46.7349 14.2239C46.8464 14.3986 46.9707 14.5648 47.1068 14.7211L47.2137 14.8513H44.0533L44.1881 14.67C44.2871 14.5396 44.3698 14.3976 44.4344 14.2471C44.4752 14.1599 44.4958 14.0645 44.4948 13.9682V7.41042C44.4808 7.06651 44.1416 6.87131 43.9324 6.66216Z" fill="#005BAA"/>
<path id="Vector_11" fill-rule="evenodd" clip-rule="evenodd" d="M26.8049 6.61804H29.3565L31.499 12.7575L33.3162 7.67304C33.3494 7.52479 33.3227 7.36947 33.2419 7.24082C33.1443 7.03168 33.0374 6.83183 32.9351 6.62734H34.8406C34.7291 7.04098 34.5618 7.49644 34.4177 7.91475L31.9545 15.0813C31.2149 14.963 30.5229 14.6412 29.956 14.1518C29.5752 13.7421 29.2993 13.2461 29.152 12.7065L27.093 7.22688C27.0112 7.01751 26.9149 6.81408 26.8049 6.61804ZM36.9925 9.50418V13.8916C36.9925 14.0682 37.0343 14.1007 37.1459 14.2448L37.6478 14.9001H35.245L35.6494 14.282C35.7485 14.1618 35.8013 14.0101 35.7981 13.8544V7.7149L35.1241 6.61804H37.6153L41.6447 11.828V7.69164C41.6491 7.53512 41.5981 7.38202 41.5007 7.25942C41.3659 7.05027 41.2218 6.85042 41.0871 6.64593H43.4666L43.0019 7.28265C42.8903 7.42208 42.8485 7.45462 42.8485 7.63584V15.0813C42.3617 15.0561 41.886 14.9264 41.4538 14.7011C41.0215 14.4757 40.6428 14.16 40.3434 13.7754L36.9925 9.50418Z" fill="#ED1C24"/>
<path id="Vector_12" d="M29.3571 17.6665C29.3571 17.9918 29.4965 18.1638 29.8543 18.1638C29.9941 18.1638 30.1326 18.1386 30.2634 18.0894C30.3284 18.0615 30.347 18.0894 30.347 18.1498V18.187C30.347 18.2427 30.347 18.266 30.2634 18.2985C30.1347 18.3489 29.9971 18.3727 29.859 18.3682C29.3664 18.3682 29.134 18.1498 29.134 17.6665V17.2017C29.1202 17.1037 29.1293 17.0037 29.1605 16.9098C29.1918 16.8159 29.2443 16.7305 29.3141 16.6602C29.3839 16.5901 29.469 16.5369 29.5627 16.5051C29.6564 16.4732 29.7563 16.4635 29.8543 16.4767C29.9895 16.4775 30.1232 16.5027 30.2494 16.551C30.3145 16.5743 30.3284 16.6021 30.3284 16.6579V16.6951C30.3284 16.7648 30.3006 16.7834 30.2401 16.7602C30.1153 16.7068 29.9808 16.6798 29.8451 16.6812C29.5012 16.6812 29.3803 16.8485 29.3803 17.211L29.3571 17.6665Z" fill="#009EDB"/>
<path id="Vector_13" d="M29.8553 18.3728C29.358 18.3728 29.1256 18.1451 29.1256 17.6664V17.2016C29.1117 17.1031 29.1208 17.0028 29.1523 16.9084C29.1838 16.8141 29.2368 16.7284 29.3071 16.6581C29.3775 16.5877 29.4632 16.5347 29.5575 16.5033C29.6518 16.4717 29.7522 16.4626 29.8507 16.4765C29.9857 16.4774 30.1196 16.5026 30.2457 16.5509C30.3154 16.5788 30.3294 16.6067 30.3294 16.6625V16.6997C30.3294 16.7369 30.3294 16.7601 30.3294 16.7694C30.3294 16.7786 30.2922 16.7694 30.2596 16.7694C30.1339 16.7199 29.9998 16.6946 29.8646 16.695C29.53 16.695 29.3999 16.8577 29.3999 17.2202V17.685C29.3999 18.0243 29.5486 18.1776 29.8925 18.1776C30.0308 18.1794 30.1682 18.1542 30.2968 18.1032C30.334 18.1032 30.3526 18.1032 30.3666 18.1032C30.3805 18.1032 30.3666 18.1358 30.3666 18.173V18.2102C30.3666 18.2706 30.3666 18.2938 30.2829 18.3217C30.1463 18.3719 29.9999 18.3895 29.8553 18.3728ZM29.8553 16.4812C29.7566 16.4669 29.6558 16.4759 29.5612 16.5077C29.4667 16.5395 29.3808 16.593 29.3107 16.664C29.2406 16.735 29.1882 16.8215 29.1576 16.9165C29.1271 17.0115 29.1193 17.1123 29.135 17.2109V17.6757C29.135 18.1404 29.3673 18.3728 29.8599 18.3728C29.9968 18.3805 30.1335 18.3567 30.2596 18.3031C30.3294 18.2752 30.3433 18.252 30.3433 18.1962V18.1497C30.3433 18.1125 30.3433 18.094 30.3433 18.0846C30.3433 18.0754 30.3154 18.0846 30.2829 18.0846C30.1527 18.1356 30.0137 18.1609 29.8739 18.159C29.53 18.159 29.3719 18.0057 29.3719 17.6617V17.1969C29.3719 16.8298 29.5253 16.6671 29.8646 16.6671C30.0015 16.6649 30.1374 16.6902 30.2643 16.7415C30.2922 16.7415 30.3108 16.7415 30.3247 16.7415C30.3294 16.7313 30.3317 16.7202 30.3317 16.709C30.3317 16.6977 30.3294 16.6867 30.3247 16.6765V16.6393C30.3247 16.5881 30.3247 16.5602 30.241 16.5323C30.1155 16.4899 29.9831 16.471 29.8507 16.4765L29.8553 16.4812Z" fill="#009EDB"/>
<path id="Vector_14" d="M30.6494 16.4754C30.6494 16.3964 30.6494 16.3824 30.7377 16.3824H30.7703C30.8446 16.3824 30.8585 16.3824 30.8585 16.4754V17.1308C30.9125 17.061 30.9838 17.0066 31.0654 16.9731C31.147 16.9397 31.236 16.9283 31.3233 16.9402C31.6533 16.9402 31.8485 17.0796 31.8485 17.4049V18.2415C31.8485 18.3159 31.8485 18.3298 31.7602 18.3298H31.723C31.6486 18.3298 31.6347 18.3298 31.6347 18.2415V17.4375C31.6347 17.2144 31.5371 17.1168 31.2722 17.1168C31.0073 17.1168 30.8818 17.2237 30.8818 17.4839V18.2508C30.8818 18.3252 30.8818 18.3391 30.7935 18.3391H30.7609C30.6913 18.3391 30.6727 18.3391 30.6727 18.2508L30.6494 16.4754Z" fill="#009EDB"/>
<path id="Vector_15" d="M31.7369 18.3344H31.6997C31.6254 18.3344 31.6114 18.3344 31.6114 18.2415V17.4374C31.6114 17.2097 31.5045 17.1214 31.2489 17.1214C30.9933 17.1214 30.8631 17.2283 30.8631 17.4839V18.2507C30.8631 18.3251 30.8631 18.3437 30.7702 18.3437H30.7377C30.6633 18.3437 30.6447 18.3437 30.6447 18.2507V16.4754C30.6447 16.3917 30.6447 16.3778 30.7377 16.3778H30.7702C30.8446 16.3778 30.8631 16.3778 30.8631 16.4754V17.1214C30.9176 17.0525 30.9892 16.999 31.0707 16.9663C31.1523 16.9337 31.2409 16.9231 31.3279 16.9355C31.6765 16.9355 31.8531 17.1028 31.8531 17.4374V18.274C31.8484 18.3344 31.8159 18.3344 31.7369 18.3344ZM31.2489 17.1028C31.5092 17.1028 31.616 17.2004 31.616 17.4282V18.2415C31.616 18.3158 31.616 18.3251 31.6997 18.3251H31.7369C31.8113 18.3251 31.8252 18.3251 31.8252 18.2415V17.4049C31.8252 17.0749 31.6486 16.9123 31.3047 16.9123C31.2171 16.8962 31.1267 16.9056 31.0443 16.9393C30.9619 16.9731 30.891 17.0299 30.8399 17.1028V16.4754C30.8399 16.401 30.8399 16.3871 30.7563 16.3871H30.7237C30.654 16.3871 30.6354 16.3871 30.6354 16.4754V18.274C30.6354 18.3483 30.6354 18.3577 30.7237 18.3577H30.7563C30.8306 18.3577 30.8399 18.3577 30.8399 18.274V17.4839C30.8539 17.2237 30.9747 17.1121 31.2489 17.1121V17.1028Z" fill="#009EDB"/>
<path id="Vector_16" d="M32.129 17.7738V17.5135C32.129 17.1184 32.3381 16.9186 32.7518 16.9186C33.1654 16.9186 33.3699 17.1231 33.3699 17.5135V17.7738C33.3699 18.1734 33.1654 18.3686 32.7518 18.3686C32.3381 18.3686 32.129 18.1642 32.129 17.7738ZM33.1561 17.5135C33.1561 17.2393 33.0585 17.1184 32.7518 17.1184C32.445 17.1184 32.3427 17.2393 32.3427 17.5135V17.7738C32.3427 18.048 32.445 18.1688 32.7518 18.1688C33.0585 18.1688 33.1561 18.048 33.1561 17.7738V17.5135Z" fill="#009EDB"/>
<path id="Vector_17" d="M32.7498 18.3749C32.3222 18.3749 32.127 18.1843 32.127 17.7754V17.5151C32.1191 17.4312 32.1285 17.3466 32.1549 17.2666C32.1813 17.1867 32.224 17.113 32.2804 17.0503C32.4111 16.9441 32.577 16.8909 32.7451 16.9016C33.1681 16.9016 33.3633 17.0922 33.3633 17.5012V17.7615C33.3759 17.8449 33.3687 17.9301 33.3423 18.0103C33.3159 18.0905 33.2711 18.1633 33.2114 18.223C33.1517 18.2827 33.0788 18.3275 32.9987 18.3539C32.9185 18.3803 32.8332 18.3875 32.7498 18.3749ZM32.7498 16.9249C32.5821 16.9115 32.4157 16.9631 32.285 17.0689C32.2277 17.1309 32.1844 17.2045 32.1579 17.2846C32.1315 17.3648 32.1225 17.4498 32.1317 17.5337V17.794C32.1317 18.1983 32.3268 18.3842 32.7498 18.3842C32.9176 18.3991 33.0846 18.3473 33.2145 18.2401C33.2719 18.1781 33.3152 18.1046 33.3417 18.0244C33.3681 17.9442 33.3771 17.8593 33.3679 17.7754V17.5151C33.3633 17.1108 33.1681 16.9435 32.7498 16.9435V16.9249ZM32.7498 18.1751C32.4524 18.1751 32.3362 18.0635 32.3362 17.7754V17.5151C32.3362 17.227 32.4477 17.1154 32.7498 17.1154C33.0519 17.1154 33.1587 17.227 33.1587 17.5151V17.7754C33.1587 18.0682 33.0472 18.1751 32.7498 18.1751ZM32.7498 17.1247C32.4524 17.1247 32.3454 17.227 32.3454 17.5151V17.7754C32.3454 18.0589 32.457 18.1657 32.7498 18.1657C33.0426 18.1657 33.1541 18.0635 33.1541 17.7754V17.5151C33.1541 17.227 33.0426 17.1247 32.7498 17.1247Z" fill="#009EDB"/>
<path id="Vector_18" d="M34.3928 17.5046C34.3928 17.1327 34.5926 16.9189 35.0248 16.9189C35.1085 16.9162 35.192 16.9288 35.2711 16.9561C35.3409 16.9561 35.3595 16.9979 35.3595 17.063V17.0909C35.3595 17.1606 35.3595 17.1839 35.2711 17.1606C35.1939 17.1317 35.112 17.1175 35.0295 17.1188C34.7135 17.1188 34.6065 17.2442 34.6065 17.5092V17.7834C34.6065 18.0669 34.7321 18.1691 35.0713 18.1691C35.1566 18.1722 35.2416 18.1596 35.3223 18.132C35.3873 18.1087 35.4059 18.132 35.4059 18.2017V18.2295C35.4059 18.29 35.4059 18.3132 35.3176 18.3318C35.2321 18.3591 35.1425 18.3717 35.0527 18.369C34.6205 18.369 34.416 18.1831 34.416 17.7834L34.3928 17.5046Z" fill="#009EDB"/>
<path id="Vector_19" d="M35.0295 18.3724C34.8623 18.3821 34.6972 18.3309 34.5648 18.2283C34.5063 18.1669 34.462 18.0935 34.4347 18.0132C34.4074 17.9331 34.3979 17.8478 34.4067 17.7635V17.4847C34.4017 17.4056 34.4131 17.3264 34.4403 17.252C34.4675 17.1775 34.5099 17.1096 34.5648 17.0525C34.6928 16.9407 34.8598 16.8839 35.0295 16.8944C35.1131 16.8936 35.1963 16.9062 35.2758 16.9316C35.3502 16.9316 35.3642 16.9781 35.3642 17.0431V17.0711C35.3642 17.1129 35.3642 17.1361 35.3642 17.1454C35.3534 17.1511 35.3414 17.1541 35.3293 17.1541C35.3172 17.1541 35.3052 17.1511 35.2944 17.1454C35.2163 17.1207 35.1347 17.1081 35.0527 17.1082C34.7507 17.1082 34.6298 17.2198 34.6298 17.494V17.7682C34.6298 18.047 34.7506 18.1493 35.0946 18.1493C35.1799 18.1528 35.265 18.1402 35.3456 18.1121C35.3781 18.1121 35.3967 18.1121 35.4106 18.1121C35.4246 18.1121 35.4339 18.1446 35.4339 18.1865V18.2144C35.4339 18.2794 35.4339 18.3027 35.3409 18.3213C35.241 18.3567 35.1355 18.3741 35.0295 18.3724ZM35.0295 16.9223C34.6159 16.9223 34.4021 17.1221 34.4021 17.5033V17.7821C34.4021 18.1818 34.6019 18.3631 35.0342 18.3631C35.1236 18.365 35.2128 18.3541 35.2991 18.3305C35.3688 18.3305 35.3874 18.2888 35.3874 18.2283V18.2004C35.3874 18.1632 35.3874 18.14 35.3874 18.1307C35.3874 18.1214 35.3548 18.1307 35.327 18.1307C35.2442 18.1561 35.158 18.1686 35.0713 18.1679C34.7507 18.1679 34.6066 18.0563 34.6066 17.7775V17.5033C34.6066 17.2244 34.7321 17.1082 35.0342 17.1082C35.1166 17.1074 35.1985 17.1215 35.2758 17.1501C35.3084 17.1501 35.327 17.1501 35.3409 17.1501C35.3548 17.1501 35.3409 17.1175 35.3409 17.0803V17.0525C35.3409 16.992 35.3409 16.9688 35.2572 16.9456C35.1805 16.9328 35.1021 16.9313 35.0249 16.9409L35.0295 16.9223Z" fill="#009EDB"/>
<path id="Vector_20" d="M35.8001 17.8362C35.8001 18.0593 35.893 18.1661 36.1766 18.1661C36.4601 18.1661 36.553 18.0639 36.553 17.8362V17.0321C36.553 16.9624 36.553 16.9438 36.646 16.9438H36.6739C36.7529 16.9438 36.7668 16.9438 36.7668 17.0321V17.8362C36.7668 18.1801 36.5948 18.366 36.1766 18.366C35.7583 18.366 35.5677 18.1894 35.5677 17.8362V17.0321C35.5677 16.9624 35.5677 16.9438 35.6607 16.9438H35.6886C35.7676 16.9438 35.7815 16.9438 35.7815 17.0321L35.8001 17.8362Z" fill="#009EDB"/>
<path id="Vector_21" d="M36.174 18.3725C35.7835 18.3725 35.5837 18.1912 35.5837 17.838V17.034C35.5837 16.9643 35.5837 16.941 35.672 16.941H35.7045C35.7835 16.941 35.7975 16.941 35.7975 17.034V17.838C35.7975 18.0751 35.9044 18.1634 36.174 18.1634C36.4435 18.1634 36.5457 18.0751 36.5457 17.838V17.034C36.5457 16.9643 36.5457 16.941 36.6434 16.941H36.6712C36.7549 16.941 36.7642 16.941 36.7642 17.034V17.838C36.7708 17.9097 36.7622 17.9819 36.739 18.0499C36.7157 18.1181 36.6784 18.1804 36.6294 18.2331C36.5009 18.3359 36.338 18.3858 36.174 18.3725ZM35.672 16.941C35.6069 16.941 35.5883 16.941 35.5883 17.0247V17.8287C35.582 17.9011 35.5917 17.974 35.6165 18.0423C35.6415 18.1105 35.681 18.1724 35.7324 18.2238C35.8644 18.326 36.0312 18.3727 36.1971 18.354C36.2797 18.3631 36.3632 18.3559 36.443 18.3328C36.5227 18.3096 36.5971 18.271 36.6619 18.2192C36.711 18.1675 36.7485 18.106 36.7718 18.0386C36.795 17.9713 36.8036 17.8997 36.7967 17.8287V17.034C36.7967 16.969 36.7967 16.9504 36.7084 16.9504H36.6805C36.6108 16.9504 36.5922 16.9504 36.5922 17.034V17.838C36.5922 18.0797 36.4853 18.1726 36.2111 18.1726C35.9369 18.1726 35.83 18.0797 35.83 17.838V17.034C35.83 16.969 35.83 16.9504 35.7417 16.9504L35.672 16.941Z" fill="#009EDB"/>
<path id="Vector_22" d="M37.0482 17.7733V17.5129C37.0482 17.1179 37.2527 16.9181 37.671 16.9181C38.0893 16.9181 38.2845 17.1226 38.2845 17.5129V17.7733C38.2845 18.1729 38.08 18.3681 37.671 18.3681C37.2621 18.3681 37.0482 18.1636 37.0482 17.7733ZM38.0754 17.5129C38.0754 17.2388 37.9778 17.1179 37.671 17.1179C37.3643 17.1179 37.2574 17.2388 37.2574 17.5129V17.7733C37.2574 18.0474 37.3643 18.1683 37.671 18.1683C37.9778 18.1683 38.0754 18.0474 38.0754 17.7733V17.5129ZM37.4712 16.5462C37.5362 16.444 37.5781 16.4069 37.671 16.4069C37.764 16.4069 37.8011 16.4347 37.8709 16.5462L37.9778 16.7136C38.0103 16.7647 37.9778 16.7786 37.9406 16.7786C37.9167 16.7826 37.8922 16.7782 37.8711 16.7664C37.85 16.7546 37.8335 16.736 37.8244 16.7136L37.7593 16.602C37.7175 16.523 37.671 16.523 37.6246 16.602L37.5642 16.7136C37.5544 16.7355 37.5378 16.7536 37.5168 16.7654C37.4959 16.7771 37.4717 16.7818 37.4479 16.7786H37.42C37.3643 16.7786 37.355 16.7786 37.3875 16.7136L37.4712 16.5462ZM37.5734 18.6191C37.5931 18.6 37.6179 18.5871 37.6449 18.582C37.6718 18.5769 37.6996 18.5799 37.7249 18.5906C37.7501 18.6012 37.7717 18.6191 37.7869 18.642C37.802 18.6648 37.8101 18.6916 37.8101 18.719C37.8101 18.7464 37.802 18.7732 37.7869 18.7961C37.7717 18.8189 37.7501 18.8368 37.7249 18.8475C37.6996 18.8581 37.6718 18.8611 37.6449 18.8561C37.6179 18.851 37.5931 18.8381 37.5734 18.8189C37.5601 18.8059 37.5494 18.7904 37.5422 18.7733C37.535 18.7561 37.5312 18.7377 37.5312 18.719C37.5312 18.7004 37.535 18.682 37.5422 18.6648C37.5494 18.6476 37.5601 18.6321 37.5734 18.6191Z" fill="#009EDB"/>
<path id="Vector_23" d="M37.6705 18.8614C37.6339 18.8602 37.5991 18.8451 37.5732 18.8193C37.5473 18.7933 37.5322 18.7585 37.5311 18.7219C37.5304 18.7029 37.5338 18.6839 37.541 18.6663C37.5482 18.6487 37.5591 18.6328 37.5729 18.6197C37.5851 18.606 37.6002 18.5952 37.6171 18.588C37.6339 18.5808 37.6521 18.5773 37.6705 18.5779C37.7087 18.5779 37.7453 18.5931 37.7724 18.6201C37.7994 18.6471 37.8146 18.6837 37.8146 18.7219C37.8151 18.7403 37.8117 18.7585 37.8045 18.7754C37.7973 18.7923 37.7864 18.8073 37.7727 18.8195C37.7593 18.8329 37.7433 18.8435 37.7258 18.8507C37.7083 18.8579 37.6895 18.8615 37.6705 18.8614ZM37.6705 18.5826C37.6522 18.5826 37.6341 18.5862 37.6174 18.5934C37.6006 18.6006 37.5855 18.6111 37.5729 18.6243C37.5484 18.6508 37.535 18.6858 37.5357 18.7219C37.5359 18.7579 37.5494 18.7923 37.5732 18.8193C37.5998 18.8438 37.6343 18.8577 37.6705 18.8577C37.7067 18.8577 37.7415 18.8441 37.7681 18.8195C37.7813 18.807 37.7919 18.7918 37.799 18.7751C37.8062 18.7583 37.8099 18.7402 37.8099 18.7219C37.8087 18.6853 37.7937 18.6505 37.7678 18.6247C37.7419 18.5988 37.7071 18.5837 37.6705 18.5826ZM37.6705 18.3734C37.2429 18.3734 37.0431 18.1829 37.0431 17.7738V17.5136C37.0357 17.4294 37.0459 17.3445 37.0731 17.2646C37.1003 17.1846 37.1439 17.111 37.2011 17.0488C37.3313 16.9417 37.4976 16.8885 37.6659 16.9001C38.0888 16.9001 38.284 17.0906 38.284 17.4997V17.7599C38.2965 17.8434 38.2894 17.9286 38.263 18.0088C38.2366 18.0889 38.1918 18.1618 38.1321 18.2215C38.0724 18.2812 37.9996 18.326 37.9194 18.3524C37.8392 18.3788 37.7539 18.386 37.6705 18.3734ZM37.6705 16.9233C37.5027 16.9089 37.336 16.9607 37.2057 17.0674C37.1484 17.1294 37.1051 17.203 37.0786 17.2832C37.0521 17.3633 37.0432 17.4482 37.0523 17.5322V17.7924C37.0523 18.1968 37.2476 18.3827 37.6705 18.3827C37.8382 18.3966 38.0048 18.3449 38.1352 18.2386C38.1926 18.1766 38.2359 18.1031 38.2624 18.0229C38.2888 17.9427 38.2978 17.8578 38.2886 17.7738V17.5136C38.284 17.1092 38.0888 16.9419 37.6705 16.9419V16.9233ZM37.6705 18.1735C37.373 18.1735 37.2569 18.062 37.2569 17.7738V17.5136C37.2569 17.2254 37.3684 17.1139 37.6705 17.1139C37.9726 17.1139 38.0748 17.2254 38.0748 17.5136V17.7738C38.0748 18.0667 37.9679 18.1735 37.6705 18.1735ZM37.6705 17.1232C37.373 17.1232 37.2615 17.2254 37.2615 17.5136V17.7738C37.2615 18.0573 37.3777 18.1643 37.6705 18.1643C37.9633 18.1643 38.0702 18.062 38.0702 17.7738V17.5136C38.0702 17.2254 37.9633 17.1232 37.6705 17.1232ZM37.94 16.7839C37.9156 16.7875 37.8907 16.7825 37.8695 16.7698C37.8483 16.7571 37.8322 16.7374 37.8239 16.7142L37.7588 16.6073C37.7588 16.5654 37.7123 16.5469 37.6937 16.5469C37.6937 16.5469 37.6473 16.5469 37.6287 16.6073L37.5636 16.7142C37.5553 16.7374 37.5392 16.7571 37.518 16.7698C37.4968 16.7825 37.4718 16.7875 37.4474 16.7839H37.4195C37.387 16.7839 37.373 16.7839 37.3684 16.7839C37.3638 16.7839 37.3684 16.756 37.3684 16.7327L37.4753 16.5654C37.545 16.4632 37.5822 16.426 37.6798 16.426C37.7774 16.426 37.8099 16.4539 37.8797 16.5654L37.9865 16.7327C37.9865 16.756 38.0144 16.7746 37.9865 16.7839C37.9586 16.7932 37.9726 16.7839 37.94 16.7839ZM37.6705 16.5422C37.6705 16.5422 37.7169 16.5422 37.7402 16.6026L37.8053 16.7142C37.8135 16.7362 37.8291 16.7547 37.8495 16.7665C37.8698 16.7784 37.8936 16.7829 37.9169 16.7793C37.9494 16.7793 37.9633 16.7793 37.9679 16.7793C37.9726 16.7793 37.9679 16.7793 37.9679 16.7327L37.8889 16.5515C37.8239 16.44 37.7821 16.4121 37.6937 16.4121C37.6054 16.4121 37.5636 16.4446 37.4939 16.5515L37.387 16.7188C37.387 16.7188 37.387 16.756 37.387 16.7653C37.387 16.7746 37.387 16.7653 37.4334 16.7653H37.4242C37.4472 16.7673 37.4703 16.7622 37.4903 16.7505C37.5103 16.7389 37.5262 16.7213 37.5357 16.7002L37.6007 16.5887C37.624 16.5608 37.6473 16.5422 37.6705 16.5422Z" fill="#009EDB"/>
<path id="Vector_24" d="M38.5597 17.5046C38.5597 17.1327 38.7595 16.9189 39.1917 16.9189C39.2754 16.9162 39.3589 16.9288 39.438 16.9561C39.5078 16.9561 39.5264 16.9979 39.5264 17.063V17.0909C39.5264 17.1606 39.5264 17.1839 39.438 17.1606C39.3609 17.1313 39.2789 17.1171 39.1964 17.1188C38.8803 17.1188 38.7734 17.2442 38.7734 17.5092V17.7834C38.7734 18.0669 38.8989 18.1691 39.2149 18.1691C39.3017 18.1718 39.3882 18.1593 39.4706 18.132C39.5356 18.1087 39.5542 18.132 39.5542 18.2017V18.2295C39.5542 18.29 39.5542 18.3132 39.4613 18.3318C39.3773 18.3591 39.2893 18.3717 39.201 18.369C38.7641 18.369 38.5597 18.1831 38.5597 17.7834V17.5046Z" fill="#009EDB"/>
<path id="Vector_25" d="M39.2002 18.3724C39.0327 18.3839 38.867 18.3325 38.7354 18.2283C38.6759 18.1676 38.6309 18.0944 38.6035 18.0139C38.5761 17.9335 38.5673 17.8479 38.5774 17.7635V17.4847C38.5717 17.406 38.5825 17.3269 38.6089 17.2525C38.6353 17.1781 38.6767 17.11 38.7308 17.0525C38.8588 16.9407 39.0259 16.8839 39.1955 16.8944C39.2806 16.894 39.3652 16.9066 39.4465 16.9316C39.5162 16.9316 39.5302 16.9781 39.5302 17.0431V17.0711C39.5302 17.1129 39.5302 17.1361 39.5302 17.1454C39.5194 17.1511 39.5074 17.1541 39.4953 17.1541C39.4832 17.1541 39.4712 17.1511 39.4604 17.1454C39.3822 17.1207 39.3008 17.1081 39.2188 17.1082C38.9213 17.1082 38.7958 17.2198 38.7958 17.494V17.7682C38.7958 18.047 38.9167 18.1493 39.2373 18.1493C39.3226 18.1528 39.4078 18.1402 39.4883 18.1121C39.4994 18.1074 39.5112 18.105 39.5232 18.105C39.5352 18.105 39.547 18.1074 39.558 18.1121C39.558 18.1121 39.558 18.1446 39.558 18.1865V18.2144C39.558 18.2794 39.558 18.3027 39.4698 18.3213C39.3829 18.3515 39.292 18.3687 39.2002 18.3724ZM39.2002 16.9223C38.7912 16.9223 38.5727 17.1221 38.5727 17.5033V17.7821C38.5727 18.1818 38.7726 18.3631 39.2095 18.3631C39.2973 18.3646 39.385 18.3536 39.4698 18.3305C39.5394 18.3305 39.558 18.2888 39.558 18.2283V18.2004C39.558 18.1632 39.558 18.14 39.558 18.1307C39.558 18.1214 39.5255 18.1307 39.4976 18.1307C39.4148 18.1561 39.3286 18.1686 39.242 18.1679C38.9213 18.1679 38.7772 18.0563 38.7772 17.7775V17.5033C38.7772 17.2244 38.9028 17.1082 39.2048 17.1082C39.2888 17.1073 39.3722 17.1215 39.4512 17.1501C39.4837 17.1501 39.5023 17.1501 39.5116 17.1501C39.5208 17.1501 39.5116 17.1175 39.5116 17.0803V17.0525C39.5116 16.992 39.5116 16.9688 39.4279 16.9456C39.3496 16.9321 39.2697 16.9306 39.1909 16.9409L39.2002 16.9223Z" fill="#009EDB"/>
<path id="Vector_26" d="M40.4871 18.1866C40.4871 18.1169 40.4871 18.0983 40.58 18.1122C40.7144 18.1515 40.8537 18.1719 40.9937 18.1727C41.2121 18.1727 41.3004 18.1308 41.3004 18.01C41.3004 17.8892 41.254 17.8706 41.1192 17.8055L40.7752 17.6428C40.594 17.5545 40.5103 17.4709 40.5103 17.2757C40.5103 17.0804 40.6776 16.9411 41.0123 16.9411C41.1319 16.9403 41.251 16.9576 41.3655 16.9921C41.4306 16.9921 41.4492 17.034 41.4492 17.099V17.1269C41.4492 17.1966 41.4492 17.2106 41.3608 17.192C41.2466 17.1562 41.1273 17.1389 41.0076 17.1409C40.7985 17.1409 40.7195 17.1827 40.7195 17.2989C40.7195 17.4151 40.7706 17.4383 40.8682 17.4848L41.2307 17.6475C41.4213 17.7404 41.5142 17.8241 41.5142 18.0285C41.5142 18.2331 41.3422 18.3911 40.9797 18.3911C40.8448 18.3927 40.7102 18.3755 40.58 18.34C40.5057 18.3167 40.4871 18.2935 40.4871 18.2331V18.1866Z" fill="#009EDB"/>
<path id="Vector_27" d="M40.9797 18.3723C40.843 18.3727 40.7069 18.3539 40.5754 18.3166C40.5057 18.3166 40.4871 18.2747 40.4871 18.2097C40.4871 18.1725 40.4871 18.1493 40.4871 18.1399C40.4871 18.1307 40.5243 18.1399 40.5614 18.1399C40.6962 18.177 40.8354 18.1958 40.9751 18.1957C41.1982 18.1957 41.2818 18.1539 41.2818 18.0377C41.2818 17.9215 41.24 17.903 41.1006 17.8378L40.752 17.6705C40.58 17.5869 40.4871 17.5032 40.4871 17.3033C40.4871 17.1035 40.6498 16.9409 40.9937 16.9409C41.1138 16.9386 41.2334 16.9575 41.3469 16.9966C41.4166 16.9966 41.4352 17.0384 41.4352 17.1035V17.1314C41.4438 17.1538 41.4438 17.1787 41.4352 17.2012C41.4114 17.211 41.3847 17.211 41.3608 17.2012C41.2487 17.1628 41.1308 17.1439 41.0123 17.1454C40.8078 17.1454 40.7288 17.1918 40.7288 17.3033C40.731 17.3448 40.7461 17.3845 40.7719 17.417C40.7977 17.4495 40.833 17.4731 40.8728 17.4847L41.2354 17.652C41.4213 17.7356 41.5189 17.8239 41.5189 18.0331C41.5189 18.2422 41.3422 18.3723 40.9797 18.3723ZM40.515 18.1121H40.4871C40.4871 18.1121 40.4871 18.1446 40.4871 18.1771C40.4871 18.2375 40.4871 18.2608 40.5754 18.2794C40.7054 18.3157 40.8401 18.3329 40.9751 18.3305C41.3422 18.3305 41.5049 18.2236 41.5049 17.9726C41.5049 17.7216 41.4073 17.6798 41.226 17.5962L40.8635 17.4289C40.8216 17.4181 40.7842 17.3943 40.7566 17.3609C40.729 17.3275 40.7128 17.2862 40.7102 17.243C40.7102 17.1268 40.7938 17.0803 41.003 17.0803C41.123 17.0792 41.2424 17.098 41.3562 17.136C41.3888 17.136 41.4073 17.136 41.4213 17.136C41.4256 17.1258 41.4278 17.1147 41.4278 17.1035C41.4278 17.0924 41.4256 17.0813 41.4213 17.071V17.0431C41.4213 16.978 41.4213 16.9641 41.3376 16.9409C41.2236 16.9041 41.1042 16.8868 40.9844 16.8897C40.6451 16.8897 40.4871 17.0013 40.4871 17.243C40.4871 17.4847 40.5754 17.5218 40.7474 17.6055L41.0913 17.7728C41.2307 17.8378 41.2772 17.889 41.2772 17.9773C41.2772 18.0656 41.1935 18.1399 40.9658 18.1399C40.8246 18.1397 40.6839 18.1209 40.5475 18.0842L40.515 18.1121Z" fill="#009EDB"/>
<path id="Vector_28" d="M41.7848 17.7724V17.5121C41.7848 17.1171 41.994 16.9172 42.4076 16.9172C42.8212 16.9172 43.0257 17.1217 43.0257 17.5121V17.7724C43.0257 18.1721 42.8212 18.3673 42.4076 18.3673C41.994 18.3673 41.7848 18.1628 41.7848 17.7724ZM42.812 17.5121C42.812 17.2379 42.719 17.1171 42.4076 17.1171C42.0962 17.1171 41.9986 17.2379 41.9986 17.5121V17.7724C41.9986 18.0466 42.1008 18.1674 42.4076 18.1674C42.7144 18.1674 42.812 18.0466 42.812 17.7724V17.5121ZM42.2077 16.5454C42.2775 16.4431 42.3147 16.4059 42.4076 16.4059C42.5005 16.4059 42.5424 16.4339 42.6074 16.5454L42.719 16.7127C42.7515 16.7638 42.719 16.7778 42.6818 16.7778C42.6579 16.7817 42.6334 16.7774 42.6124 16.7656C42.5912 16.7537 42.5748 16.7351 42.5656 16.7127L42.5005 16.6012C42.4541 16.5221 42.4076 16.5221 42.3658 16.6012L42.3007 16.7127C42.2728 16.7685 42.2449 16.7778 42.1845 16.7778C42.1241 16.7778 42.1148 16.7778 42.1474 16.7127L42.2077 16.5454ZM42.9281 16.3781C42.9165 16.3995 42.8989 16.4171 42.8774 16.4286C42.8559 16.4401 42.8315 16.4452 42.8073 16.4431H42.7794C42.7144 16.4431 42.705 16.4431 42.7376 16.3734L42.8537 16.1457C42.8642 16.1171 42.8843 16.0931 42.9107 16.0778C42.937 16.0625 42.9678 16.0569 42.9979 16.062H43.0257C43.1001 16.062 43.1141 16.062 43.0722 16.141L42.9281 16.3781Z" fill="#009EDB"/>
<path id="Vector_29" d="M42.4095 18.3743C41.9865 18.3743 41.7867 18.1837 41.7867 17.7747V17.5144C41.7787 17.4306 41.7882 17.346 41.8146 17.266C41.841 17.186 41.8837 17.1123 41.94 17.0497C42.0712 16.9442 42.2368 16.8912 42.4048 16.9009C42.8277 16.9009 43.0276 17.0915 43.0276 17.5005V17.7608C43.0322 18.1744 42.8231 18.3743 42.4095 18.3743ZM42.4095 16.9242C42.2417 16.9108 42.0754 16.9624 41.9447 17.0683C41.8874 17.1303 41.844 17.2038 41.8175 17.284C41.7911 17.3642 41.7821 17.4491 41.7913 17.533V17.7933C41.7913 18.1977 41.9865 18.3835 42.4095 18.3835C42.5772 18.3985 42.7442 18.3467 42.8742 18.2395C42.9315 18.1775 42.9749 18.1039 43.0013 18.0238C43.0278 17.9436 43.0367 17.8586 43.0276 17.7747V17.5144C43.0043 17.1101 42.8277 16.9428 42.4095 16.9428V16.9242ZM42.4095 18.1744C42.112 18.1744 41.9958 18.0629 41.9958 17.7747V17.5144C41.9958 17.2263 42.1074 17.1147 42.4095 17.1147C42.7116 17.1147 42.8184 17.2263 42.8184 17.5144V17.7747C42.8184 18.0675 42.7069 18.1744 42.4095 18.1744ZM42.4095 17.1241C42.112 17.1241 42.0051 17.2263 42.0051 17.5144V17.7747C42.0051 18.0582 42.1166 18.1651 42.4095 18.1651C42.7022 18.1651 42.8137 18.0629 42.8137 17.7747V17.5144C42.8137 17.2263 42.7022 17.1241 42.4095 17.1241ZM42.6836 16.7848C42.6586 16.7886 42.633 16.7838 42.611 16.7712C42.589 16.7584 42.572 16.7387 42.5628 16.715L42.4977 16.6082C42.4559 16.5291 42.4141 16.5291 42.3676 16.6082L42.3072 16.715C42.298 16.7387 42.281 16.7584 42.259 16.7712C42.2371 16.7838 42.2114 16.7886 42.1863 16.7848C42.1538 16.7848 42.1352 16.7848 42.1305 16.7848C42.1259 16.7848 42.1305 16.7569 42.1305 16.7336L42.2375 16.5663C42.3025 16.4641 42.3444 16.4269 42.4373 16.4269C42.5302 16.4269 42.5721 16.4548 42.6418 16.5663L42.7487 16.7336C42.7487 16.7569 42.7487 16.7755 42.7487 16.7848C42.7487 16.7941 42.7162 16.7848 42.6836 16.7848ZM42.4095 16.5431C42.4095 16.5431 42.4559 16.5431 42.4791 16.6035L42.5442 16.715C42.554 16.737 42.5706 16.7551 42.5915 16.7668C42.6124 16.7786 42.6366 16.7832 42.6604 16.7801C42.6883 16.7801 42.7069 16.7801 42.7116 16.7801C42.7162 16.7801 42.7116 16.7801 42.7116 16.7336L42.6046 16.5663C42.5349 16.4548 42.4977 16.4269 42.4048 16.4269C42.3118 16.4269 42.2747 16.4595 42.2096 16.5663L42.1027 16.7336C42.1027 16.7336 42.1027 16.7708 42.1027 16.7801C42.1027 16.7894 42.1027 16.7801 42.1538 16.7801C42.1775 16.7825 42.2013 16.7775 42.2221 16.7659C42.2429 16.7542 42.2597 16.7365 42.27 16.715L42.3304 16.6035C42.3629 16.5617 42.3862 16.5431 42.4095 16.5431ZM42.8091 16.4501H42.7812C42.7441 16.4501 42.7255 16.4501 42.7208 16.4501C42.7133 16.4307 42.7133 16.4091 42.7208 16.3897L42.8417 16.162C42.8449 16.1442 42.8517 16.1273 42.8619 16.1123C42.872 16.0974 42.8851 16.0846 42.9005 16.075C42.9157 16.0654 42.9329 16.059 42.9508 16.0564C42.9687 16.0538 42.9869 16.0549 43.0043 16.0598H43.0322C43.0741 16.0598 43.0973 16.0598 43.1019 16.0598C43.1066 16.0598 43.1019 16.0923 43.1019 16.1294L42.9625 16.3618C42.9504 16.3915 42.9287 16.4163 42.9009 16.4323C42.8732 16.4483 42.8409 16.4546 42.8091 16.4501ZM42.9997 16.0644C42.9704 16.0604 42.9406 16.0666 42.9153 16.0818C42.8899 16.097 42.8705 16.1204 42.8603 16.148L42.7394 16.3758C42.7394 16.4083 42.7394 16.4223 42.7394 16.4315C42.7394 16.4409 42.7394 16.4315 42.7952 16.4315H42.8231C42.8477 16.4321 42.8719 16.4259 42.8932 16.4135C42.9145 16.4013 42.9321 16.3834 42.9439 16.3618L43.0833 16.1294C43.0833 16.0969 43.1112 16.0783 43.0833 16.069C43.0555 16.0598 43.0555 16.069 43.0183 16.069L42.9997 16.0644Z" fill="#009EDB"/>
<path id="Vector_30" d="M43.5353 18.2524C43.5353 18.3268 43.5353 18.3408 43.447 18.3408H43.4145C43.3448 18.3408 43.3215 18.3408 43.3215 18.2524V17.4485C43.3215 17.0952 43.5213 16.9186 43.9164 16.9186C44.3115 16.9186 44.502 17.1045 44.502 17.4485V18.2524C44.502 18.3268 44.502 18.3408 44.4137 18.3408H44.3951C44.3161 18.3408 44.3022 18.3408 44.3022 18.2524V17.4485C44.3022 17.2207 44.2139 17.1184 43.9304 17.1184C43.6469 17.1184 43.5493 17.2253 43.5493 17.4485L43.5353 18.2524Z" fill="#009EDB"/>
<path id="Vector_31" d="M44.3973 18.3355C44.3183 18.3355 44.2997 18.3355 44.2997 18.2426V17.4478C44.2997 17.2108 44.2021 17.1225 43.9325 17.1225C43.6629 17.1225 43.556 17.2108 43.556 17.4478V18.2519C43.556 18.3263 43.556 18.3448 43.4631 18.3448H43.4306C43.3608 18.3448 43.3376 18.3448 43.3376 18.2519V17.4478C43.3376 17.0946 43.5374 16.9134 43.9325 16.9134C44.0153 16.9048 44.099 16.9128 44.1788 16.9367C44.2585 16.9606 44.3328 17.0001 44.3973 17.0528C44.4469 17.1052 44.4849 17.1675 44.5089 17.2355C44.5329 17.3036 44.5424 17.3759 44.5367 17.4478V18.2519C44.5088 18.3355 44.4949 18.3355 44.3973 18.3355ZM43.9325 17.1132C44.2067 17.1132 44.3089 17.2062 44.3089 17.4478V18.2519C44.3089 18.3263 44.3089 18.3355 44.3973 18.3355C44.4716 18.3355 44.4856 18.3355 44.4856 18.2519V17.4478C44.4915 17.3766 44.4821 17.3049 44.4581 17.2376C44.434 17.1703 44.3959 17.1088 44.3461 17.0575C44.2266 16.9705 44.0798 16.9293 43.9325 16.9412C43.7665 16.9225 43.5998 16.9692 43.4678 17.0714C43.416 17.1227 43.376 17.1845 43.3502 17.2527C43.3246 17.3209 43.314 17.3938 43.319 17.4664V18.2705C43.319 18.3448 43.319 18.3541 43.4073 18.3541H43.4678C43.5421 18.3541 43.556 18.3541 43.556 18.2705V17.4478C43.5374 17.2062 43.6443 17.1132 43.9325 17.1132Z" fill="#009EDB"/>
<path id="Vector_32" d="M45.9722 17.4408C45.9722 17.7662 45.7817 17.9335 45.3866 17.9335C45.2878 17.9226 45.188 17.9226 45.0891 17.9335C45.0687 17.9369 45.0501 17.9478 45.0373 17.9642C45.0243 17.9805 45.018 18.001 45.0195 18.0218C45.0195 18.059 45.0195 18.0869 45.0938 18.1008C45.1912 18.1083 45.2892 18.1083 45.3866 18.1008C45.5465 18.0897 45.7067 18.1201 45.8514 18.1891C45.8996 18.2223 45.9381 18.2678 45.9626 18.321C45.9872 18.3741 45.9969 18.433 45.9908 18.4912C45.9972 18.5542 45.9878 18.6178 45.9634 18.6762C45.9391 18.7346 45.9006 18.786 45.8514 18.8258C45.7086 18.9011 45.5476 18.9349 45.3866 18.9234C45.2257 18.9335 45.0651 18.8997 44.9218 18.8258C44.8761 18.7916 44.8399 18.7463 44.8163 18.6944C44.7928 18.6424 44.7827 18.5853 44.787 18.5284C44.7839 18.468 44.7974 18.4078 44.826 18.3545C44.8547 18.3013 44.8975 18.2569 44.9497 18.2263C44.9131 18.2116 44.8822 18.1857 44.8613 18.1523C44.8404 18.1189 44.8307 18.0797 44.8336 18.0404C44.8336 17.9149 44.9079 17.8405 45.0613 17.8173C44.9829 17.7838 44.9175 17.7259 44.8748 17.6522C44.8321 17.5785 44.8144 17.4929 44.8242 17.4083V17.4037C44.8242 17.0969 45.0427 16.9389 45.4098 16.9389C45.5103 16.9367 45.61 16.9557 45.7027 16.9947L45.8653 16.8506C45.9118 16.8087 45.935 16.8087 45.9815 16.8506C46.028 16.8924 46.028 16.9157 45.9815 16.9621L45.856 17.0923C45.8968 17.1338 45.9286 17.1833 45.9494 17.2377C45.9702 17.292 45.9796 17.3502 45.9768 17.4083L45.9722 17.4408ZM45.1124 18.3053C45.0699 18.3268 45.0345 18.3603 45.0105 18.4015C44.9866 18.4427 44.9752 18.49 44.9776 18.5377C44.9776 18.7236 45.0845 18.7701 45.3866 18.7701C45.6887 18.7701 45.7956 18.7236 45.7956 18.533C45.7956 18.3425 45.6933 18.3239 45.3866 18.3239C45.2948 18.3245 45.2032 18.3183 45.1124 18.3053ZM45.7584 17.4037C45.7584 17.2038 45.6329 17.1062 45.3866 17.1062C45.1403 17.1062 45.0101 17.2038 45.0101 17.4037V17.4408C45.0101 17.6407 45.1031 17.7429 45.3866 17.7429C45.6701 17.7429 45.7584 17.6407 45.7584 17.4408V17.4037Z" fill="#009EDB"/>
<path id="Vector_33" d="M45.3862 18.9611C45.2257 18.9733 45.0649 18.9411 44.9215 18.8681C44.876 18.8326 44.84 18.7865 44.8165 18.7339C44.793 18.6812 44.7827 18.6235 44.7867 18.566C44.783 18.5066 44.7953 18.4472 44.8223 18.3942C44.8493 18.341 44.8899 18.2961 44.9401 18.264C44.9047 18.248 44.8752 18.2216 44.8553 18.1884C44.8353 18.1552 44.826 18.1167 44.8285 18.0781C44.8285 17.9541 44.9029 17.8797 45.0516 17.8549C44.9746 17.8201 44.9106 17.7618 44.8689 17.6882C44.8271 17.6148 44.8097 17.5299 44.8192 17.446V17.4088C44.8173 17.3405 44.8304 17.2725 44.8577 17.2099C44.8851 17.1472 44.9259 17.0914 44.9772 17.0462C45.102 16.9545 45.2547 16.9085 45.4095 16.9161C45.5099 16.914 45.6097 16.933 45.7023 16.9719L45.8649 16.8325C45.9114 16.786 45.9346 16.786 45.9811 16.8325C46.009 16.8557 46.0183 16.8697 46.0183 16.8882C46.0183 16.9068 46.0183 16.9208 45.9811 16.9486L45.8556 17.0742C45.898 17.1148 45.9311 17.164 45.9528 17.2185C45.9744 17.273 45.9841 17.3316 45.9811 17.3902V17.4274C45.9811 17.7527 45.7812 17.92 45.3909 17.92C45.292 17.9087 45.1922 17.9087 45.0934 17.92C45.0746 17.9243 45.0578 17.935 45.0459 17.9502C45.0341 17.9655 45.0279 17.9843 45.0283 18.0037C45.0283 18.0409 45.0516 18.0641 45.098 18.0781C45.1955 18.0865 45.2934 18.0865 45.3909 18.0781C45.5585 18.0627 45.7272 18.0933 45.8788 18.1663C45.927 18.1993 45.9652 18.245 45.989 18.2984C46.0128 18.3517 46.0213 18.4106 46.0136 18.4684C46.0217 18.5322 46.0131 18.597 45.9887 18.6565C45.9642 18.7159 45.9248 18.7681 45.8742 18.8077C45.7291 18.9034 45.56 18.9566 45.3862 18.9611ZM45.3862 16.9254C45.0237 16.9254 44.8053 17.1067 44.8053 17.3902V17.4274C44.7957 17.5114 44.8131 17.5962 44.8549 17.6697C44.8967 17.7432 44.9607 17.8015 45.0377 17.8364C44.8843 17.8596 44.8099 17.9293 44.8099 18.0548C44.8091 18.0937 44.8196 18.1321 44.8402 18.1651C44.8609 18.1981 44.8907 18.2244 44.9261 18.2407C44.8751 18.2712 44.8335 18.315 44.8056 18.3674C44.7777 18.4198 44.7647 18.4789 44.7681 18.5381C44.7644 18.5945 44.7743 18.6509 44.7969 18.7027C44.8196 18.7545 44.8543 18.8001 44.8982 18.8356C45.0425 18.9062 45.2026 18.9382 45.363 18.9286C45.5235 18.9405 45.6842 18.9084 45.8277 18.8356C45.877 18.7958 45.9154 18.7443 45.9398 18.6859C45.9642 18.6275 45.9736 18.5639 45.9672 18.5009C45.9739 18.4438 45.9649 18.3859 45.9412 18.3335C45.9174 18.281 45.8798 18.2361 45.8324 18.2035C45.6877 18.1345 45.5275 18.1041 45.3676 18.1152C45.2688 18.1259 45.169 18.1259 45.0702 18.1152C45.0513 18.1121 45.034 18.1025 45.0213 18.0881C45.0086 18.0737 45.0013 18.0554 45.0005 18.0362C44.999 18.0155 45.0054 17.9949 45.0183 17.9786C45.0311 17.9623 45.0497 17.9513 45.0702 17.9479C45.169 17.9363 45.2688 17.9363 45.3676 17.9479C45.532 17.9643 45.6969 17.9215 45.8324 17.8271C45.8818 17.7802 45.9204 17.723 45.9453 17.6595C45.9702 17.596 45.9808 17.5279 45.9765 17.4599V17.4088C45.9797 17.3509 45.9702 17.2929 45.9484 17.2391C45.9268 17.1853 45.8935 17.1369 45.851 17.0974L45.9765 16.9672C46.0044 16.9672 46.0136 16.9254 46.0136 16.9115C46.0121 16.9012 46.0084 16.8912 46.0028 16.8824C45.9972 16.8737 45.9898 16.8661 45.9811 16.8604H45.9579C45.916 16.8185 45.8928 16.8185 45.8463 16.8604L45.6837 17.0044C45.59 16.9632 45.4885 16.9426 45.3862 16.944V16.9254ZM45.3862 18.7845C45.0702 18.7845 44.9772 18.7287 44.9772 18.5475C44.9721 18.4994 44.9825 18.451 45.0067 18.4093C45.0309 18.3675 45.0678 18.3345 45.112 18.315C45.2033 18.3208 45.2949 18.3208 45.3862 18.315C45.693 18.315 45.7998 18.3476 45.7998 18.5289C45.7998 18.7101 45.6976 18.8031 45.3862 18.8031V18.7845ZM45.112 18.3197C45.0699 18.3402 45.0349 18.3728 45.0117 18.4135C44.9885 18.4541 44.9781 18.5008 44.9819 18.5475C44.9819 18.7241 45.0748 18.7799 45.3862 18.7799C45.6976 18.7799 45.7906 18.7241 45.7906 18.5428C45.7906 18.3616 45.693 18.3336 45.3862 18.3336C45.295 18.341 45.2034 18.3425 45.112 18.3383V18.3197ZM45.3862 17.7574C45.1166 17.7574 45.0097 17.669 45.0097 17.4506V17.4088C45.0097 17.2043 45.1306 17.1067 45.3862 17.1067C45.6419 17.1067 45.7626 17.2089 45.7626 17.4088V17.446C45.7626 17.6644 45.6558 17.7527 45.3862 17.7527V17.7574ZM45.3862 17.116C45.1352 17.116 45.0144 17.2135 45.0144 17.4134V17.4506C45.0144 17.6644 45.1213 17.7527 45.3862 17.7527C45.6511 17.7527 45.758 17.6644 45.758 17.4506V17.4088C45.758 17.2135 45.6325 17.1114 45.3862 17.1114V17.116Z" fill="#009EDB"/>
<path id="Vector_34" d="M48.4736 16.7078C48.4736 16.7682 48.4736 16.7868 48.3945 16.7868H48.2272V17.7768C48.2272 18.1718 48.0181 18.367 47.6044 18.367C47.1908 18.367 46.9863 18.1718 46.9863 17.7768V17.5119C46.9779 17.4335 46.9874 17.3543 47.014 17.2801C47.0407 17.206 47.0838 17.1388 47.1402 17.0838C47.1966 17.0287 47.2647 16.9872 47.3395 16.9623C47.4143 16.9375 47.4938 16.9299 47.5719 16.9402C47.6608 16.9255 47.7522 16.9371 47.8347 16.9733C47.9172 17.0096 47.9874 17.0692 48.0367 17.1447V16.8101H47.6509C47.5858 16.8101 47.5719 16.8101 47.5719 16.731C47.5719 16.6706 47.5719 16.652 47.6509 16.652H48.0367V16.4754C48.0367 16.3964 48.0367 16.3824 48.125 16.3824H48.1157C48.1854 16.3824 48.2086 16.3824 48.2086 16.4754V16.6288H48.376C48.4364 16.6288 48.455 16.6288 48.455 16.7078H48.4736ZM47.1862 17.7721C47.1862 18.0463 47.2791 18.1671 47.5905 18.1671C47.9019 18.1671 47.9995 18.0463 47.9995 17.7721V17.5119C47.9995 17.2376 47.9019 17.1168 47.5905 17.1168C47.2791 17.1168 47.1862 17.2376 47.1862 17.5119V17.7721Z" fill="#009EDB"/>
<path id="Vector_35" d="M47.6031 18.3716C47.4348 18.3837 47.2683 18.3304 47.1383 18.2229C47.081 18.1609 47.0376 18.0873 47.0112 18.0072C46.9847 17.927 46.9758 17.8421 46.9849 17.7581V17.4932C46.9763 17.4097 46.9851 17.3252 47.0107 17.2453C47.0363 17.1653 47.0782 17.0915 47.1336 17.0285C47.1955 16.9709 47.269 16.9273 47.3493 16.9009C47.4295 16.8744 47.5145 16.8656 47.5985 16.8751C47.6825 16.8654 47.7677 16.879 47.8447 16.9142C47.9217 16.9494 47.9876 17.0049 48.0353 17.0749V16.7542H47.6496C47.5845 16.7542 47.5659 16.7542 47.5659 16.6706C47.5659 16.6055 47.5659 16.5869 47.6496 16.5869H48.0307V16.4754C48.0307 16.3963 48.0307 16.3778 48.1236 16.3778H48.1143C48.184 16.3778 48.2073 16.3778 48.2073 16.4754V16.6241H48.3746C48.435 16.6241 48.4582 16.6241 48.4582 16.7078C48.4582 16.7682 48.4582 16.7914 48.3746 16.7914H48.2073V17.7767C48.2259 18.1718 48.0167 18.3716 47.6031 18.3716ZM47.5705 16.9401C47.4918 16.9337 47.4125 16.9431 47.3375 16.9679C47.2624 16.9926 47.1932 17.0322 47.1336 17.0842C47.0797 17.1481 47.0391 17.2221 47.0144 17.3019C46.9896 17.3818 46.9812 17.4658 46.9896 17.549V17.8139C46.9789 17.8975 46.9866 17.9825 47.0123 18.0628C47.038 18.1431 47.081 18.2168 47.1383 18.2787C47.2683 18.3859 47.4353 18.4376 47.6031 18.4227C47.7708 18.4361 47.9372 18.3845 48.0678 18.2787C48.1254 18.2168 48.1689 18.1433 48.1954 18.063C48.2219 17.9828 48.2307 17.8979 48.2212 17.8139V16.7821H48.3932C48.449 16.7821 48.4722 16.7821 48.4722 16.7078C48.4722 16.652 48.4722 16.6334 48.3932 16.6334H48.2212V16.4754C48.2212 16.3963 48.2212 16.3871 48.1329 16.3871H48.1143C48.0399 16.3871 48.0307 16.3871 48.0307 16.4754V16.6334H47.6496C47.5845 16.6334 47.5752 16.6334 47.5752 16.7078C47.5752 16.7635 47.5752 16.7821 47.6496 16.7821H48.0399V17.1353C47.9891 17.0607 47.9177 17.0025 47.8343 16.9679C47.751 16.9332 47.6593 16.9236 47.5705 16.9401ZM47.6031 18.1904C47.3056 18.1904 47.1941 18.0834 47.1941 17.7907V17.5304C47.1941 17.2423 47.3103 17.1307 47.6031 17.1307C47.8959 17.1307 48.0167 17.2423 48.0167 17.5304V17.7907C48.0167 18.0602 47.9005 18.1718 47.6031 18.1718V18.1904ZM47.6031 17.14C47.3149 17.14 47.1988 17.2469 47.1988 17.5304V17.7907C47.1988 18.0788 47.3103 18.181 47.6031 18.181C47.8959 18.181 48.0074 18.0788 48.0074 17.7907V17.5304C48.0074 17.2237 47.9005 17.1214 47.6031 17.1214V17.14Z" fill="#009EDB"/>
<path id="Vector_36" d="M48.5107 17.7738V17.5135C48.5107 17.1184 48.7152 16.9186 49.1334 16.9186C49.4449 16.9186 49.6261 17.0255 49.7051 17.2253C49.747 17.2253 49.7887 17.151 49.7887 17.0022C49.7887 16.9604 49.7887 16.9465 49.8538 16.9465H49.9003C49.9514 16.9465 49.9607 16.9465 49.9607 17.0022C49.9607 17.23 49.8724 17.3415 49.7376 17.3787C49.7426 17.4235 49.7426 17.4687 49.7376 17.5135V17.7738C49.7376 18.1734 49.5331 18.3686 49.1242 18.3686C48.7151 18.3686 48.5107 18.1642 48.5107 17.7738ZM49.5378 17.5135C49.5378 17.2393 49.4402 17.1184 49.1334 17.1184C48.8267 17.1184 48.7198 17.2393 48.7198 17.5135V17.7738C48.7198 18.048 48.8267 18.1688 49.1334 18.1688C49.4402 18.1688 49.5378 18.048 49.5378 17.7738V17.5135Z" fill="#009EDB"/>
<path id="Vector_37" d="M49.1338 18.3751C48.7063 18.3751 48.5064 18.1846 48.5064 17.7756V17.5154C48.499 17.4312 48.5093 17.3463 48.5365 17.2663C48.5637 17.1863 48.6073 17.1129 48.6644 17.0506C48.7947 16.9434 48.961 16.8902 49.1292 16.9018C49.4359 16.9018 49.5939 16.9995 49.7008 17.2086C49.7566 17.1853 49.7798 17.111 49.7798 16.9902C49.7798 16.9437 49.7798 16.9298 49.8495 16.9298H49.896C49.9471 16.9298 49.9611 16.9298 49.9611 16.9902C49.9611 17.1947 49.8867 17.3248 49.738 17.3713C49.7405 17.4146 49.7405 17.458 49.738 17.5014V17.7617C49.7502 17.8443 49.7432 17.9285 49.7173 18.0079C49.6914 18.0872 49.6474 18.1595 49.5888 18.219C49.5302 18.2785 49.4587 18.3236 49.3797 18.3506C49.3007 18.3777 49.2165 18.3861 49.1338 18.3751ZM49.1338 16.9251C48.966 16.9107 48.7993 16.9624 48.6691 17.0691C48.6117 17.1311 48.5684 17.2047 48.5419 17.2849C48.5155 17.3651 48.5066 17.45 48.5157 17.534V17.7942C48.5157 18.1986 48.7109 18.3845 49.1338 18.3845C49.3015 18.3983 49.4681 18.3467 49.5986 18.2404C49.6559 18.1784 49.6992 18.1048 49.7257 18.0247C49.7522 17.9445 49.7611 17.8595 49.752 17.7756V17.5154C49.7546 17.4704 49.7546 17.4254 49.752 17.3806C49.9007 17.3341 49.9751 17.2086 49.9751 17.0041C49.9751 16.9623 49.9751 16.953 49.9146 16.953H49.8681C49.8217 16.953 49.8078 16.953 49.8078 17.0041C49.8078 17.1296 49.7798 17.2039 49.7194 17.2319C49.6172 17.0227 49.4406 16.9437 49.1338 16.9437V16.9251ZM49.1338 18.1753C48.8364 18.1753 48.7202 18.0638 48.7202 17.7756V17.5154C48.7202 17.2272 48.8317 17.1157 49.1338 17.1157C49.4359 17.1157 49.5382 17.2272 49.5382 17.5154V17.7756C49.5382 18.0684 49.4313 18.1753 49.1338 18.1753ZM49.1338 17.1249C48.8364 17.1249 48.7249 17.2272 48.7249 17.5154V17.7756C48.7249 18.0591 48.8411 18.166 49.1338 18.166C49.4267 18.166 49.5335 18.0638 49.5335 17.7756V17.5154C49.5335 17.2272 49.4267 17.1249 49.1338 17.1249Z" fill="#009EDB"/>
<path id="Vector_38" d="M50.2621 18.2524C50.2621 18.3268 50.2621 18.3408 50.1691 18.3408H50.1366C50.0669 18.3408 50.0483 18.3408 50.0483 18.2524V17.4485C50.0483 17.0952 50.2481 16.9186 50.6385 16.9186C51.0289 16.9186 51.2288 17.1045 51.2288 17.4485V18.2524C51.2288 18.3268 51.2288 18.3408 51.1358 18.3408H51.1033C51.0243 18.3408 51.0104 18.3408 51.0104 18.2524V17.4485C51.0104 17.2207 50.9267 17.1184 50.6385 17.1184C50.3504 17.1184 50.2621 17.2253 50.2621 17.4485V18.2524Z" fill="#009EDB"/>
<path id="Vector_39" d="M51.1368 18.3355H51.1043C51.0253 18.3355 51.0113 18.3355 51.0113 18.2426V17.4478C51.0113 17.2108 50.9091 17.1225 50.6395 17.1225C50.37 17.1225 50.2631 17.2108 50.2631 17.4478V18.2519C50.2631 18.3263 50.2631 18.3448 50.1701 18.3448H50.1376C50.0679 18.3448 50.0446 18.3448 50.0446 18.2519V17.4478C50.0446 17.0946 50.2445 16.9134 50.6395 16.9134C50.7224 16.9048 50.8061 16.9128 50.8858 16.9367C50.9656 16.9606 51.0398 17.0001 51.1043 17.0528C51.1546 17.1047 51.1931 17.1669 51.2172 17.2351C51.2412 17.3033 51.2503 17.3758 51.2437 17.4478V18.2519C51.2298 18.3355 51.2158 18.3355 51.1368 18.3355ZM50.6395 17.1039C50.9137 17.1039 51.016 17.1969 51.016 17.4386V18.2426C51.016 18.3169 51.016 18.3263 51.1043 18.3263H51.1368C51.2112 18.3263 51.2251 18.3263 51.2251 18.2426V17.4478C51.2308 17.377 51.2217 17.3057 51.1985 17.2386C51.1753 17.1714 51.1385 17.1097 51.0904 17.0575C51.0255 17.0055 50.9511 16.967 50.8714 16.9438C50.7916 16.9207 50.7081 16.9135 50.6256 16.9227C50.4596 16.9039 50.2929 16.9506 50.1608 17.0528C50.1091 17.1041 50.069 17.1659 50.0434 17.2341C50.0177 17.3023 50.007 17.3752 50.0121 17.4478V18.2519C50.0121 18.3263 50.0121 18.3355 50.1004 18.3355H50.1329C50.2073 18.3355 50.2213 18.3355 50.2213 18.2519V17.4478C50.2584 17.2062 50.3653 17.1132 50.6395 17.1132V17.1039Z" fill="#009EDB"/>
<path id="Vector_40" d="M53.4502 17.4408C53.4502 17.7662 53.2597 17.9335 52.8692 17.9335C52.7689 17.9226 52.6676 17.9226 52.5671 17.9335C52.5467 17.9369 52.5281 17.9478 52.5152 17.9642C52.5023 17.9805 52.496 18.001 52.4975 18.0218C52.4975 18.059 52.4974 18.0869 52.5718 18.1008C52.6708 18.1085 52.7703 18.1085 52.8692 18.1008C53.0292 18.0897 53.1893 18.1201 53.334 18.1891C53.3811 18.2231 53.4183 18.269 53.442 18.3221C53.4656 18.3751 53.4749 18.4334 53.4688 18.4912C53.4752 18.5542 53.4658 18.6178 53.4415 18.6762C53.4171 18.7346 53.3786 18.786 53.3294 18.8258C53.1868 18.9016 53.0256 18.9354 52.8646 18.9234C52.6945 18.9382 52.5236 18.9043 52.372 18.8258C52.3278 18.7905 52.2928 18.745 52.2702 18.6932C52.2475 18.6414 52.2378 18.5848 52.2418 18.5284C52.2382 18.4684 52.251 18.4086 52.2788 18.3553C52.3066 18.3021 52.3485 18.2575 52.3998 18.2263C52.3633 18.2116 52.3323 18.1857 52.3114 18.1523C52.2906 18.1189 52.2808 18.0797 52.2836 18.0404C52.2836 17.9149 52.358 17.8405 52.5114 17.8173C52.4331 17.7838 52.3677 17.7259 52.325 17.6522C52.2822 17.5785 52.2645 17.4929 52.2744 17.4083V17.4037C52.2744 17.0969 52.4928 16.9389 52.8646 16.9389C52.9635 16.9371 53.0617 16.9561 53.1527 16.9947L53.3155 16.8506C53.3619 16.8087 53.3851 16.8087 53.4317 16.8506C53.4781 16.8924 53.4781 16.9157 53.4317 16.9621L53.3061 17.0923C53.3469 17.1338 53.3787 17.1833 53.3995 17.2377C53.4203 17.292 53.4296 17.3502 53.427 17.4083L53.4502 17.4408ZM52.5904 18.3053C52.5479 18.3269 52.5125 18.3603 52.4885 18.4015C52.4646 18.4427 52.4532 18.49 52.4556 18.5377C52.4556 18.7236 52.5625 18.7701 52.8692 18.7701C53.176 18.7701 53.2736 18.7236 53.2736 18.533C53.2736 18.3425 53.1713 18.3239 52.8692 18.3239C52.776 18.3247 52.6827 18.3185 52.5904 18.3053ZM53.2271 17.4037C53.2271 17.2038 53.1063 17.1062 52.86 17.1062C52.6137 17.1062 52.4835 17.2038 52.4835 17.4037V17.4408C52.4835 17.6407 52.5718 17.7429 52.86 17.7429C53.1481 17.7429 53.2271 17.6407 53.2271 17.4408V17.4037Z" fill="#009EDB"/>
<path id="Vector_41" d="M52.8692 18.9611C52.6995 18.9776 52.5285 18.9453 52.3765 18.8681C52.3311 18.8326 52.295 18.7865 52.2716 18.7339C52.2481 18.6812 52.2378 18.6235 52.2417 18.566C52.238 18.5061 52.2508 18.4462 52.2787 18.393C52.3066 18.3398 52.3484 18.2952 52.3998 18.2639C52.3632 18.2492 52.3322 18.2234 52.3114 18.1899C52.2904 18.1565 52.2807 18.1173 52.2836 18.0781C52.2836 17.9541 52.3579 17.8797 52.5067 17.8549C52.4296 17.8201 52.3657 17.7618 52.3239 17.6882C52.2822 17.6148 52.2648 17.5299 52.2742 17.446V17.4088C52.2723 17.3405 52.2855 17.2725 52.3128 17.2099C52.3401 17.1472 52.3809 17.0914 52.4323 17.0462C52.5585 16.9538 52.7129 16.9078 52.8692 16.9161C52.968 16.9143 53.0662 16.9334 53.1573 16.9719L53.32 16.8325C53.3665 16.786 53.3897 16.786 53.4362 16.8325C53.464 16.8557 53.4734 16.8697 53.4734 16.8882C53.4734 16.9068 53.4734 16.9208 53.4362 16.9486L53.3153 17.0742C53.3561 17.1157 53.3879 17.1652 53.4087 17.2195C53.4295 17.2739 53.4388 17.332 53.4362 17.3902V17.4274C53.4362 17.7527 53.2363 17.92 52.8506 17.92C52.7502 17.9085 52.6489 17.9085 52.5485 17.92C52.5296 17.9243 52.5129 17.935 52.501 17.9502C52.4891 17.9655 52.4829 17.9843 52.4834 18.0037C52.4834 18.0409 52.4834 18.0641 52.5531 18.0781C52.6521 18.0866 52.7516 18.0866 52.8506 18.0781C53.0105 18.0669 53.1706 18.0973 53.3153 18.1663C53.364 18.1991 53.4027 18.2446 53.4273 18.2979C53.4519 18.3512 53.4614 18.4102 53.4548 18.4684C53.4618 18.5326 53.4523 18.5975 53.4271 18.6569C53.4019 18.7163 53.3618 18.7683 53.3107 18.8077C53.179 18.8956 53.027 18.9484 52.8692 18.9611ZM52.8692 16.9254C52.502 16.9254 52.2836 17.1067 52.2836 17.3902V17.4274C52.2741 17.5114 52.2914 17.5962 52.3332 17.6697C52.375 17.7432 52.4389 17.8015 52.5159 17.8364C52.3626 17.8596 52.2928 17.9293 52.2928 18.0548C52.291 18.0933 52.3006 18.1316 52.3204 18.1647C52.3403 18.1977 52.3695 18.2242 52.4044 18.2407C52.3534 18.2712 52.3118 18.315 52.2839 18.3674C52.256 18.4198 52.243 18.4789 52.2464 18.5381C52.2424 18.595 52.2527 18.652 52.2762 18.7039C52.2998 18.7558 52.3358 18.8011 52.3812 18.8356C52.6915 18.9597 53.0376 18.9597 53.3479 18.8356C53.3966 18.7956 53.4344 18.7439 53.458 18.6855C53.4815 18.627 53.49 18.5635 53.4826 18.5009C53.4894 18.4438 53.4804 18.3859 53.4566 18.3335C53.4329 18.281 53.3953 18.2361 53.3479 18.2035C53.2037 18.1328 53.0432 18.1023 52.8831 18.1152C52.7842 18.1263 52.6845 18.1263 52.5857 18.1152C52.5345 18.1152 52.5113 18.0734 52.5113 18.0362C52.5099 18.0155 52.5162 17.9949 52.5291 17.9786C52.542 17.9623 52.5605 17.9513 52.581 17.9479C52.6814 17.9361 52.7828 17.9361 52.8831 17.9479C53.0382 17.9581 53.1922 17.9155 53.32 17.8271C53.3695 17.7802 53.408 17.723 53.4329 17.6595C53.4578 17.596 53.4684 17.5279 53.464 17.4599V17.4088C53.4673 17.3509 53.4577 17.2929 53.436 17.2391C53.4144 17.1853 53.3811 17.1369 53.3386 17.0974L53.4687 16.9672C53.4862 16.9534 53.4978 16.9335 53.5012 16.9115C53.4997 16.9012 53.496 16.8912 53.4904 16.8824C53.4848 16.8737 53.4774 16.8661 53.4687 16.8604C53.4222 16.8139 53.4037 16.8185 53.3525 16.8604L53.1899 17.0044C53.0891 16.9596 52.9793 16.9388 52.8692 16.944V16.9254ZM52.8692 18.7845C52.5485 18.7845 52.4555 18.7287 52.4555 18.5474C52.4504 18.4994 52.4607 18.451 52.485 18.4093C52.5092 18.3675 52.5461 18.3345 52.5903 18.315C52.6832 18.321 52.7763 18.321 52.8692 18.315C53.1713 18.315 53.2781 18.3476 53.2781 18.5289C53.2781 18.7101 53.1387 18.8031 52.8692 18.8031V18.7845ZM52.5903 18.3197C52.5482 18.3402 52.5133 18.3728 52.49 18.4135C52.4668 18.4541 52.4564 18.5008 52.4601 18.5474C52.4601 18.7241 52.5531 18.7799 52.8692 18.7799C53.1852 18.7799 53.2689 18.7241 53.2689 18.5428C53.2689 18.3616 53.1713 18.3336 52.8692 18.3336C52.7764 18.3411 52.6833 18.3426 52.5903 18.3383V18.3197ZM52.8692 17.7574C52.5996 17.7574 52.4881 17.669 52.4881 17.4506V17.4088C52.4881 17.2043 52.6135 17.1067 52.8692 17.1067C53.1248 17.1067 53.241 17.2089 53.241 17.4088V17.446C53.227 17.6644 53.1341 17.7527 52.8692 17.7527V17.7574ZM52.8692 17.116C52.6135 17.116 52.4927 17.2135 52.4927 17.4134V17.4506C52.4927 17.6644 52.5996 17.7527 52.8692 17.7527C53.1387 17.7527 53.2363 17.6644 53.2363 17.4506V17.4088C53.227 17.2135 53.1108 17.1114 52.8692 17.1114V17.116Z" fill="#009EDB"/>
<path id="Vector_42" d="M54.0153 16.5099C54.0159 16.528 54.0129 16.546 54.0063 16.5629C53.9999 16.5798 53.99 16.5952 53.9775 16.6082C53.9649 16.6213 53.9498 16.6316 53.9331 16.6387C53.9165 16.6457 53.8985 16.6493 53.8805 16.6493C53.8617 16.6499 53.8431 16.6468 53.8257 16.6401C53.8082 16.6333 53.7923 16.6232 53.7788 16.6102C53.7654 16.5971 53.7547 16.5816 53.7474 16.5643C53.7402 16.5471 53.7364 16.5286 53.7364 16.5099C53.7376 16.4725 53.7533 16.437 53.7802 16.411C53.8071 16.385 53.843 16.3704 53.8805 16.3705C53.9166 16.3717 53.9509 16.3869 53.9761 16.4129C54.0012 16.4389 54.0153 16.4737 54.0153 16.5099ZM53.7736 17.0351C53.7736 16.9654 53.7736 16.9468 53.8619 16.9468H53.8944C53.9641 16.9468 53.9827 16.9468 53.9827 17.0351V18.2528C53.9827 18.3271 53.9827 18.3411 53.8944 18.3411H53.8619C53.7829 18.3411 53.7736 18.3411 53.7736 18.2528V17.0351Z" fill="#009EDB"/>
<path id="Vector_43" d="M53.8961 18.3357H53.8636C53.7846 18.3357 53.7706 18.3357 53.7706 18.2427V17.0343C53.7706 16.9647 53.7706 16.9414 53.8636 16.9414H53.8961C53.9659 16.9414 53.9891 16.9414 53.9891 17.0343V18.252C53.9891 18.3357 53.9659 18.3357 53.8961 18.3357ZM53.8636 16.9414C53.7892 16.9414 53.7753 16.9414 53.7753 17.0251V18.2427C53.7753 18.3171 53.7753 18.3264 53.8636 18.3264H53.8961C53.9612 18.3264 53.9798 18.3264 53.9798 18.2427V17.0343C53.9798 16.9693 53.9798 16.9507 53.8961 16.9507L53.8636 16.9414ZM53.8636 16.6393C53.8266 16.6393 53.7911 16.6246 53.765 16.5984C53.7389 16.5723 53.7242 16.5369 53.7242 16.4999C53.7242 16.4629 53.7389 16.4275 53.765 16.4013C53.7911 16.3751 53.8266 16.3605 53.8636 16.3605C53.9006 16.3605 53.9361 16.3751 53.9622 16.4013C53.9883 16.4275 54.003 16.4629 54.003 16.4999C54.003 16.5369 53.9883 16.5723 53.9622 16.5984C53.9361 16.6246 53.9006 16.6393 53.8636 16.6393ZM53.8636 16.3651C53.8459 16.3651 53.8283 16.3686 53.812 16.3753C53.7957 16.3821 53.7808 16.3921 53.7683 16.4046C53.7557 16.4171 53.7458 16.4319 53.7391 16.4483C53.7323 16.4647 53.7288 16.4822 53.7288 16.4999C53.7288 16.5176 53.7323 16.5351 53.7391 16.5515C53.7458 16.5678 53.7557 16.5827 53.7683 16.5952C53.7808 16.6077 53.7957 16.6176 53.812 16.6244C53.8283 16.6312 53.8459 16.6346 53.8636 16.6346C53.8993 16.6346 53.9336 16.6204 53.9589 16.5952C53.9842 16.5699 53.9984 16.5357 53.9984 16.4999C53.9984 16.4641 53.9842 16.4299 53.9589 16.4046C53.9336 16.3793 53.8993 16.3651 53.8636 16.3651Z" fill="#009EDB"/>
<path id="Vector_44" d="M55.4112 17.9217C55.4112 18.2377 55.2299 18.3864 54.8209 18.3864C54.4956 18.3864 54.2911 18.2562 54.2911 17.9635C54.2911 17.6707 54.4816 17.5498 54.8674 17.5498H55.202V17.3593C55.202 17.1688 55.0672 17.1037 54.8302 17.1037C54.7255 17.103 54.6211 17.1139 54.5188 17.1362C54.4491 17.1362 54.4259 17.1362 54.4259 17.0665V17.0432C54.4259 16.9782 54.4259 16.9596 54.5142 16.9456C54.6153 16.9263 54.718 16.917 54.8209 16.9178C55.2159 16.9178 55.4112 17.0665 55.4112 17.3593V17.9217ZM55.202 17.6986H54.8674C54.6164 17.6986 54.5002 17.7683 54.5002 17.9449C54.5002 18.1215 54.6071 18.1866 54.8209 18.1866C55.0347 18.1866 55.202 18.1261 55.202 17.9123V17.6986ZM54.8674 16.7691C54.8163 16.7691 54.8117 16.7691 54.8023 16.7133C54.7931 16.6575 54.8442 16.6017 54.9278 16.5134C54.9476 16.497 54.9608 16.4738 54.965 16.4484C54.965 16.3972 54.965 16.374 54.9138 16.374C54.8726 16.3641 54.8297 16.3641 54.7884 16.374C54.7559 16.374 54.7326 16.374 54.714 16.3461V16.3228C54.714 16.281 54.714 16.2624 54.7559 16.2485C54.8086 16.2256 54.8657 16.2145 54.9232 16.216C54.9508 16.2137 54.9786 16.2176 55.0046 16.2274C55.0305 16.2373 55.0539 16.2527 55.0731 16.2728C55.0922 16.2928 55.1066 16.3169 55.1153 16.3433C55.124 16.3696 55.1266 16.3976 55.123 16.4251C55.123 16.546 54.9557 16.5971 54.951 16.69C54.9492 16.7041 54.9426 16.7173 54.9326 16.7273C54.9225 16.7374 54.9094 16.7439 54.8953 16.7458L54.8674 16.7691Z" fill="#009EDB"/>
<path id="Vector_45" d="M54.8227 18.3714C54.4742 18.3714 54.2882 18.2227 54.2882 17.9438C54.2882 17.6649 54.4649 17.5255 54.8692 17.5255H55.1991V17.3582C55.1991 17.1816 55.0876 17.1072 54.832 17.1072C54.7275 17.1058 54.6232 17.1151 54.5206 17.1351C54.4834 17.1351 54.4602 17.1351 54.4463 17.1351C54.4324 17.1351 54.4463 17.1026 54.4463 17.07V17.0468C54.4463 16.9817 54.4463 16.9631 54.5345 16.9445C54.6356 16.9248 54.7384 16.9154 54.8413 16.9167C55.2363 16.9167 55.4362 17.07 55.4362 17.3814V17.9438C55.4176 18.2319 55.2317 18.3714 54.8227 18.3714ZM54.8692 17.5348C54.4695 17.5348 54.2929 17.6602 54.2929 17.9438C54.2929 18.2273 54.4742 18.362 54.8227 18.362C54.9846 18.3791 55.1477 18.3432 55.2875 18.2598C55.3379 18.2198 55.3775 18.1678 55.4027 18.1085C55.4279 18.0493 55.4378 17.9846 55.4316 17.9205V17.3582C55.4353 17.2953 55.4237 17.2324 55.3977 17.1749C55.3719 17.1174 55.3324 17.0671 55.2828 17.0282C55.15 16.9485 54.9959 16.9113 54.8413 16.9213C54.7384 16.9201 54.6356 16.9294 54.5345 16.9492C54.4649 16.9492 54.4509 16.977 54.4509 17.0422V17.0654C54.4509 17.0979 54.4509 17.1165 54.4509 17.1258C54.4509 17.1351 54.4834 17.1258 54.5206 17.1258C54.6229 17.1038 54.7273 17.0929 54.832 17.0932C55.0923 17.0932 55.2038 17.1723 55.2038 17.3535V17.5301L54.8692 17.5348ZM54.8227 18.1855C54.6043 18.1855 54.502 18.1065 54.502 17.9438C54.502 17.7811 54.6136 17.6928 54.8692 17.6928H55.2038V17.9112C55.2038 18.139 55.0598 18.1855 54.8227 18.1855ZM54.8692 17.7207C54.6136 17.7207 54.5067 17.7904 54.5067 17.9623C54.5067 18.1343 54.6089 18.1994 54.8227 18.1994C55.0365 18.1994 55.1991 18.1251 55.1991 17.9298V17.7207H54.8692ZM54.8692 16.7912C54.8135 16.7912 54.8088 16.7912 54.7995 16.7354C54.7902 16.6796 54.8274 16.6331 54.8878 16.5681L54.9296 16.5262C54.9388 16.5189 54.9464 16.5097 54.952 16.4994C54.9576 16.489 54.961 16.4776 54.9622 16.4658C54.9622 16.4147 54.9622 16.3961 54.9156 16.3915C54.8784 16.3926 54.8418 16.4021 54.8088 16.4194C54.7716 16.4194 54.7484 16.4194 54.7251 16.3868V16.3636C54.7251 16.3171 54.7251 16.3032 54.7669 16.2893C54.8197 16.2663 54.8768 16.2553 54.9342 16.2567C54.9884 16.2551 55.0413 16.2733 55.083 16.3078C55.1018 16.3292 55.1161 16.3544 55.1249 16.3815C55.1337 16.4087 55.1368 16.4374 55.1341 16.4658C55.1299 16.497 55.1195 16.5271 55.1036 16.5542C55.0876 16.5814 55.0664 16.605 55.0412 16.6239C55.0026 16.6485 54.9744 16.6866 54.9622 16.7307C54.9611 16.7452 54.9548 16.7587 54.9446 16.769C54.9344 16.7792 54.9208 16.7855 54.9064 16.7865L54.8692 16.7912ZM54.9017 16.3868C54.9296 16.3868 54.9575 16.3868 54.9575 16.4658C54.9534 16.4913 54.9402 16.5144 54.9203 16.5309L54.8785 16.5728C54.8181 16.6331 54.7855 16.6657 54.7902 16.7307C54.7949 16.7958 54.7902 16.7819 54.8552 16.7819C54.8682 16.78 54.8801 16.774 54.8893 16.7648C54.8985 16.7556 54.9045 16.7437 54.9064 16.7307C54.9184 16.6853 54.9464 16.6457 54.9854 16.6192C55.0115 16.6036 55.0341 16.5828 55.0517 16.558C55.0694 16.5332 55.0816 16.505 55.0876 16.4752C55.09 16.4474 55.0867 16.4196 55.0779 16.3932C55.0691 16.3668 55.055 16.3425 55.0365 16.3218C54.9972 16.2863 54.9454 16.2679 54.8924 16.2707C54.835 16.2692 54.7779 16.2803 54.7251 16.3032C54.6926 16.3032 54.674 16.331 54.6879 16.3729C54.6879 16.4147 54.7298 16.4147 54.7623 16.4054C54.806 16.3858 54.8544 16.3794 54.9017 16.3868Z" fill="#009EDB"/>
<path id="Vector_46" d="M55.9291 18.2524C55.9291 18.3268 55.9291 18.3408 55.8362 18.3408H55.8037C55.734 18.3408 55.7154 18.3408 55.7154 18.2524V17.4485C55.7154 17.0952 55.9152 16.9186 56.3056 16.9186C56.696 16.9186 56.8958 17.1045 56.8958 17.4485V18.2524C56.8958 18.3268 56.8958 18.3408 56.8029 18.3408H56.7704C56.6913 18.3408 56.6774 18.3408 56.6774 18.2524V17.4485C56.6774 17.2207 56.5937 17.1184 56.3056 17.1184C56.0175 17.1184 55.9291 17.2253 55.9291 17.4485V18.2524Z" fill="#009EDB"/>
<path id="Vector_47" d="M56.8029 18.3355H56.7704C56.6913 18.3355 56.6774 18.3355 56.6774 18.2426V17.4478C56.6774 17.2108 56.5751 17.1225 56.3056 17.1225C56.0361 17.1225 55.9291 17.2108 55.9291 17.4478V18.2519C55.9291 18.3263 55.9291 18.3448 55.8362 18.3448H55.8037C55.734 18.3448 55.7107 18.3448 55.7107 18.2519V17.4478C55.7107 17.0946 55.9105 16.9134 56.3056 16.9134C56.3884 16.9048 56.4722 16.9128 56.5519 16.9367C56.6317 16.9606 56.7059 17.0001 56.7704 17.0528C56.8206 17.1047 56.8592 17.1669 56.8832 17.2351C56.9073 17.3033 56.9164 17.3758 56.9098 17.4478V18.2519C56.8958 18.3355 56.8819 18.3355 56.8029 18.3355ZM56.3056 17.1039C56.5798 17.1039 56.6821 17.1969 56.6821 17.4386V18.2426C56.6821 18.3169 56.6821 18.3263 56.7704 18.3263H56.8029C56.8772 18.3263 56.8912 18.3263 56.8912 18.2426V17.4478C56.8968 17.377 56.8878 17.3057 56.8646 17.2386C56.8414 17.1714 56.8046 17.1097 56.7564 17.0575C56.6916 17.0055 56.6172 16.967 56.5374 16.9438C56.4577 16.9207 56.3742 16.9135 56.2916 16.9227C56.1257 16.9039 55.9589 16.9506 55.8269 17.0528C55.7752 17.1041 55.7351 17.1659 55.7094 17.2341C55.6838 17.3023 55.6731 17.3752 55.6782 17.4478V18.2519C55.6782 18.3263 55.7014 18.3355 55.7665 18.3355H55.799C55.8733 18.3355 55.8873 18.3355 55.8873 18.2519V17.4478C55.9245 17.2062 56.0175 17.1132 56.3056 17.1132V17.1039Z" fill="#009EDB"/>
<path id="Vector_48" d="M58.0025 16.4754C58.0025 16.3964 58.0025 16.3824 58.0955 16.3824H58.128C58.2023 16.3824 58.2163 16.3824 58.2163 16.4754V17.1308C58.2699 17.0606 58.3412 17.006 58.4229 16.9725C58.5045 16.939 58.5936 16.9279 58.6811 16.9402C59.025 16.9402 59.2016 17.1028 59.2016 17.4375V18.2741C59.2016 18.3484 59.2016 18.3624 59.1133 18.3624H59.0761C59.0017 18.3624 58.9878 18.3624 58.9878 18.2741V17.4375C58.9878 17.2144 58.8855 17.1168 58.6253 17.1168C58.3651 17.1168 58.2349 17.2237 58.2349 17.4839V18.2508C58.2349 18.3252 58.2349 18.3391 58.1466 18.3391H58.1141C58.0397 18.3391 58.0211 18.3391 58.0211 18.2508L58.0025 16.4754Z" fill="#009EDB"/>
<path id="Vector_49" d="M59.0947 18.3344H59.0575C58.9831 18.3344 58.9646 18.3344 58.9646 18.2415V17.4374C58.9646 17.2097 58.8623 17.1214 58.6067 17.1214C58.3511 17.1214 58.221 17.2283 58.221 17.4839V18.2507C58.221 18.3251 58.2209 18.3437 58.128 18.3437H58.0955C58.0258 18.3437 58.0025 18.3437 58.0025 18.2507V16.4754C58.0025 16.3917 58.0025 16.3778 58.0955 16.3778H58.128C58.2023 16.3778 58.221 16.3778 58.221 16.4754V17.1214C58.2754 17.0525 58.3469 16.999 58.4285 16.9663C58.5101 16.9337 58.5988 16.9231 58.6857 16.9355C59.0343 16.9355 59.2109 17.1028 59.2109 17.4374V18.274C59.1877 18.3344 59.1691 18.3344 59.0947 18.3344ZM58.63 17.1028C58.8902 17.1028 58.9971 17.2004 58.9971 17.4282V18.2415C58.9971 18.3158 58.9971 18.3251 59.0808 18.3251H59.1179C59.1923 18.3251 59.2016 18.3251 59.2016 18.2415V17.4049C59.2016 17.0749 59.0297 16.9123 58.6857 16.9123C58.5983 16.8999 58.5092 16.911 58.4275 16.9445C58.3459 16.978 58.2745 17.0327 58.221 17.1028V16.4754C58.221 16.401 58.2209 16.3871 58.1373 16.3871H58.1048C58.035 16.3871 58.0164 16.3871 58.0164 16.4754V18.274C58.0164 18.3483 58.0165 18.3577 58.1048 18.3577H58.1373C58.207 18.3577 58.221 18.3577 58.221 18.274V17.4839C58.2117 17.2237 58.3371 17.1121 58.6067 17.1121L58.63 17.1028Z" fill="#009EDB"/>
<path id="Vector_50" d="M59.4878 17.772V17.5117C59.4878 17.1167 59.6922 16.9169 60.1105 16.9169C60.2261 16.8997 60.3441 16.9204 60.4471 16.9756C60.5501 17.0309 60.6325 17.1179 60.6822 17.2236C60.724 17.2236 60.7658 17.1492 60.7658 17.0005C60.7658 16.9587 60.7658 16.9447 60.8309 16.9447H60.8774C60.9285 16.9447 60.9378 16.9447 60.9378 17.0005C60.9378 17.2282 60.8448 17.3398 60.7147 17.377C60.7196 17.4218 60.7196 17.4669 60.7147 17.5117V17.772C60.7147 18.1717 60.5102 18.3669 60.1012 18.3669C59.6922 18.3669 59.4878 18.1624 59.4878 17.772ZM60.5149 17.5117C60.5149 17.2375 60.4173 17.1167 60.1105 17.1167C59.8038 17.1167 59.6969 17.2375 59.6969 17.5117V17.772C59.6969 18.0462 59.7991 18.1671 60.1105 18.1671C60.4219 18.1671 60.5149 18.0462 60.5149 17.772V17.5117Z" fill="#009EDB"/>
<path id="Vector_51" d="M60.11 18.3751C59.6824 18.3751 59.4826 18.1846 59.4826 17.7756V17.5154C59.4752 17.4312 59.4854 17.3463 59.5126 17.2663C59.5399 17.1863 59.5834 17.1129 59.6406 17.0506C59.7708 16.9434 59.9371 16.8902 60.1054 16.9018C60.4121 16.9018 60.5933 16.9995 60.677 17.2086C60.7328 17.1853 60.756 17.111 60.756 16.9902C60.756 16.9437 60.756 16.9298 60.8258 16.9298H60.8722C60.9233 16.9298 60.9373 16.9298 60.9373 16.9902C60.9373 17.1947 60.8629 17.3248 60.7142 17.3713C60.7166 17.4146 60.7166 17.458 60.7142 17.5014V17.7617C60.7264 17.8443 60.7193 17.9285 60.6934 18.0079C60.6676 18.0872 60.6236 18.1595 60.565 18.219C60.5065 18.2785 60.4349 18.3236 60.3559 18.3506C60.2769 18.3777 60.1928 18.3861 60.11 18.3751ZM60.11 16.9251C59.9422 16.9107 59.7755 16.9624 59.6452 17.0691C59.5879 17.1311 59.5446 17.2047 59.5181 17.2849C59.4916 17.3651 59.4827 17.45 59.4918 17.534V17.7942C59.4918 18.1986 59.6871 18.3845 60.11 18.3845C60.2777 18.3983 60.4443 18.3467 60.5748 18.2404C60.632 18.1784 60.6754 18.1048 60.7019 18.0247C60.7284 17.9445 60.7373 17.8595 60.7281 17.7756V17.5154C60.7306 17.4704 60.7306 17.4254 60.7281 17.3806C60.8768 17.3341 60.9465 17.2086 60.9465 17.0041C60.9465 16.9623 60.9465 16.953 60.8908 16.953H60.8443C60.7978 16.953 60.7839 16.953 60.7839 17.0041C60.7839 17.1296 60.756 17.2039 60.6956 17.2319C60.5933 17.0227 60.4167 16.9437 60.11 16.9437V16.9251ZM60.11 18.1753C59.8125 18.1753 59.6963 18.0638 59.6963 17.7756V17.5154C59.6963 17.2272 59.8079 17.1157 60.11 17.1157C60.4121 17.1157 60.5143 17.2272 60.5143 17.5154V17.7756C60.5143 18.0684 60.4075 18.1753 60.11 18.1753ZM60.11 17.1249C59.8125 17.1249 59.701 17.2272 59.701 17.5154V17.7756C59.701 18.0591 59.8172 18.166 60.11 18.166C60.4028 18.166 60.5097 18.0638 60.5097 17.7756V17.5154C60.5097 17.2272 60.4028 17.1249 60.11 17.1249Z" fill="#009EDB"/>
<path id="Vector_52" d="M61.2402 18.2524C61.2402 18.3268 61.2402 18.3408 61.1472 18.3408H61.1286C61.0589 18.3408 61.0403 18.3408 61.0403 18.2524V17.4485C61.0403 17.0952 61.2355 16.9186 61.6305 16.9186C62.0256 16.9186 62.2208 17.1045 62.2208 17.4485V18.2524C62.2208 18.3268 62.2208 18.3408 62.1279 18.3408H62.0954C62.0163 18.3408 62.0024 18.3408 62.0024 18.2524V17.4485C62.0024 17.2207 61.9187 17.1184 61.6305 17.1184C61.3424 17.1184 61.2541 17.2253 61.2541 17.4485L61.2402 18.2524Z" fill="#009EDB"/>
<path id="Vector_53" d="M62.1138 18.3355H62.0812C62.0022 18.3355 61.9883 18.3355 61.9883 18.2426V17.4478C61.9883 17.2108 61.8861 17.1225 61.6165 17.1225C61.3469 17.1225 61.2401 17.2108 61.2401 17.4478V18.2519C61.2401 18.3263 61.2401 18.3448 61.1471 18.3448H61.1285C61.0588 18.3448 61.0355 18.3448 61.0355 18.2519V17.4478C61.0355 17.0946 61.2354 16.9134 61.6304 16.9134C61.7133 16.9048 61.797 16.9128 61.8767 16.9367C61.9565 16.9606 62.0307 17.0001 62.0952 17.0528C62.1455 17.1047 62.184 17.1669 62.2081 17.2351C62.2322 17.3033 62.2412 17.3758 62.2346 17.4478V18.2519C62.2068 18.3355 62.1928 18.3355 62.1138 18.3355ZM61.6165 17.1039C61.8907 17.1039 61.993 17.1969 61.993 17.4386V18.2426C61.993 18.3169 61.993 18.3263 62.0812 18.3263H62.1138C62.1882 18.3263 62.2021 18.3263 62.2021 18.2426V17.4478C62.2078 17.377 62.1987 17.3057 62.1755 17.2386C62.1523 17.1714 62.1154 17.1097 62.0673 17.0575C62.0025 17.0055 61.9281 16.967 61.8483 16.9438C61.7686 16.9207 61.6851 16.9135 61.6026 16.9227C61.4366 16.9039 61.2699 16.9506 61.1378 17.0528C61.0861 17.1041 61.046 17.1659 61.0203 17.2341C60.9947 17.3023 60.984 17.3752 60.9891 17.4478V18.2519C60.9891 18.3263 61.0123 18.3355 61.0773 18.3355H61.1285C61.2029 18.3355 61.2168 18.3355 61.2168 18.2519V17.4478C61.2354 17.2062 61.3423 17.1132 61.6165 17.1132V17.1039Z" fill="#009EDB"/>
</g>
<defs>
<clipPath id="clip0_19_371">
<rect width="64.66" height="19.9979" fill="white" transform="translate(0.140015 0.843384)"/>
</clipPath>
</defs>
</svg>
